<svg width="146" height="146" viewBox="0 0 146 146" fill="none" xmlns="http://www.w3.org/2000/svg">
<path d="M105.293 89.2306C104.454 88.3925 103.095 88.3925 102.256 89.2306L98.7645 92.7223L95.2728 89.2306C94.4344 88.3925 93.0748 88.3925 92.2364 89.2306C91.3978 90.0693 91.3978 91.4286 92.2364 92.2672L95.7279 95.7587L92.2364 99.2501C91.398 100.089 91.398 101.448 92.2364 102.287C92.6556 102.706 93.2051 102.916 93.7546 102.916C94.3041 102.916 94.8536 102.706 95.2728 102.287L98.7645 98.795L102.256 102.287C102.675 102.706 103.225 102.916 103.774 102.916C104.324 102.916 104.873 102.706 105.293 102.287C106.131 101.448 106.131 100.089 105.293 99.2501L101.801 95.7587L105.293 92.2672C106.131 91.4286 106.131 90.0693 105.293 89.2306Z" fill="#ECF8FF"/>
<path d="M90.1763 115.082V127.964C90.1763 129.15 91.1375 130.111 92.3232 130.111H105.205C106.391 130.111 107.352 129.15 107.352 127.964V115.082C107.352 113.896 106.391 112.935 105.205 112.935H92.3232C91.1375 112.935 90.1763 113.897 90.1763 115.082ZM94.4704 117.229H103.059V125.818H94.4704V117.229Z" fill="#ECF8FF"/>
<path d="M115.941 89.3176V102.2C115.941 103.386 116.903 104.347 118.088 104.347H130.971C132.156 104.347 133.118 103.385 133.118 102.2V89.3176C133.118 88.1316 132.156 87.1707 130.971 87.1707H118.088C116.903 87.1704 115.941 88.1316 115.941 89.3176ZM120.236 91.4645H128.824V100.053H120.236V91.4645Z" fill="#ECF8FF"/>
<path d="M143.853 110.791C145.039 110.791 146 109.83 146 108.644V25.9794C146 20.0598 141.184 15.2441 135.265 15.2441H120.235V10.9499C120.235 6.21432 116.383 2.36157 111.647 2.36157C107.878 2.36157 104.494 4.8815 103.417 8.48986C103.077 9.62593 103.724 10.8222 104.86 11.1615C105.997 11.5008 107.192 10.8547 107.532 9.71832C108.07 7.91499 109.762 6.65574 111.647 6.65574C114.015 6.65574 115.941 8.58197 115.941 10.9499V24.691C115.941 27.059 114.015 28.9852 111.647 28.9852C109.279 28.9852 107.353 27.059 107.353 24.691V17.391C107.353 16.2051 106.392 15.2441 105.206 15.2441C105.134 15.2441 105.062 15.2478 104.991 15.2549C104.921 15.2478 104.849 15.2441 104.777 15.2441H42.6548V10.9499C42.6548 6.21432 38.8021 2.36157 34.0665 2.36157C29.3309 2.36157 25.4784 6.21432 25.4784 10.9499V15.2441H10.7353C4.81572 15.2441 0 20.0598 0 25.9794V132.903C0 138.823 4.81572 143.638 10.7353 143.638H135.265C141.184 143.638 146 138.823 146 132.903V120.879C146 119.693 145.039 118.732 143.853 118.732C142.667 118.732 141.706 119.694 141.706 120.879V132.903C141.706 136.455 138.817 139.344 135.265 139.344H10.7353C7.18366 139.344 4.29417 136.455 4.29417 132.903V53.891H11.3558C12.5415 53.891 13.5027 52.9298 13.5027 51.7441C13.5027 50.5581 12.5415 49.5971 11.3558 49.5971H4.29417V25.9794C4.29417 22.4277 7.18366 19.5382 10.7353 19.5382H25.4784V24.6913C25.4784 29.4269 29.3312 33.2796 34.0668 33.2796C38.8024 33.2796 42.6551 29.4269 42.6551 24.6913V19.5382H103.059V24.6913C103.059 29.4269 106.912 33.2796 111.647 33.2796C116.383 33.2796 120.236 29.4269 120.236 24.6913V19.5382H135.265C138.817 19.5382 141.706 22.4277 141.706 25.9794V49.5971H23.2596C22.0739 49.5971 21.1127 50.5584 21.1127 51.7441C21.1127 52.93 22.0739 53.891 23.2596 53.891H141.706V108.644C141.706 109.83 142.667 110.791 143.853 110.791ZM38.3606 24.691C38.3606 27.059 36.4344 28.9852 34.0665 28.9852C31.6985 28.9852 29.7723 27.059 29.7723 24.691V10.9499C29.7723 8.58197 31.6985 6.65574 34.0665 6.65574C36.4344 6.65574 38.3606 8.58197 38.3606 10.9499V24.691Z" fill="#ECF8FF"/>
<path d="M108.012 64.0526C107.173 63.2146 105.814 63.2146 104.975 64.0526L97.3841 71.6438L93.8416 68.101C93.0032 67.2629 91.6436 67.2629 90.8053 68.101C89.9666 68.9396 89.9666 70.299 90.8053 71.1376L95.8659 76.1983C96.2851 76.6175 96.8346 76.8271 97.3841 76.8271C97.9333 76.8271 98.4831 76.6175 98.9023 76.1983L108.012 67.0893C108.85 66.2503 108.85 64.8913 108.012 64.0526Z" fill="#ECF8FF"/>
<path d="M131.057 63.5971C130.219 62.759 128.859 62.759 128.021 63.5971L124.529 67.0888L121.037 63.5971C120.199 62.759 118.839 62.759 118.001 63.5971C117.162 64.4357 117.162 65.795 118.001 66.6337L121.493 70.1251L118.001 73.6166C117.163 74.4552 117.163 75.8146 118.001 76.6532C118.42 77.0724 118.97 77.282 119.519 77.282C120.069 77.282 120.618 77.0724 121.037 76.6532L124.529 73.1615L128.021 76.6532C128.44 77.0724 128.99 77.282 129.539 77.282C130.089 77.282 130.638 77.0724 131.057 76.6532C131.896 75.8146 131.896 74.4552 131.057 73.6166L127.566 70.1251L131.057 66.6337C131.896 65.795 131.896 64.4357 131.057 63.5971Z" fill="#ECF8FF"/>
<path d="M30.7176 89.6857C29.8793 88.8476 28.5197 88.8476 27.6813 89.6857L20.0901 97.2771L16.5477 93.7343C15.7093 92.8963 14.3497 92.8963 13.5113 93.7343C12.6727 94.573 12.6727 95.9323 13.5113 96.771L18.572 101.832C18.9746 102.234 19.5207 102.46 20.0901 102.46C20.6596 102.46 21.2057 102.234 21.6083 101.832L30.7176 92.7223C31.556 91.8837 31.556 90.5243 30.7176 89.6857Z" fill="#ECF8FF"/>
<path d="M15.0298 112.935C13.8441 112.935 12.8828 113.897 12.8828 115.082V127.964C12.8828 129.15 13.8441 130.111 15.0298 130.111H27.912C29.0977 130.111 30.0589 129.15 30.0589 127.964V115.082C30.0589 113.896 29.0977 112.935 27.912 112.935H15.0298ZM25.765 125.818H17.1767V117.229H25.765V125.818Z" fill="#ECF8FF"/>
<path d="M30.0589 76.5663V63.6838C30.0589 62.4978 29.0977 61.5369 27.912 61.5369H15.0298C13.8441 61.5369 12.8828 62.4981 12.8828 63.6838V76.566C12.8828 77.752 13.8441 78.713 15.0298 78.713H27.912V78.7133C29.0977 78.7133 30.0589 77.752 30.0589 76.5663ZM25.765 74.4194H17.1767V65.831H25.765V74.4194Z" fill="#ECF8FF"/>
<path d="M56.4823 64.0526C55.6439 63.2146 54.2846 63.2146 53.4459 64.0526L45.8548 71.6438L42.3123 68.101C41.4739 67.2629 40.1143 67.2629 39.276 68.101C38.4373 68.9396 38.4373 70.299 39.276 71.1376L44.3366 76.1983C44.7558 76.6175 45.3053 76.8271 45.8548 76.8271C46.404 76.8271 46.9538 76.6175 47.373 76.1983L56.4823 67.0893C57.3206 66.2503 57.3206 64.8913 56.4823 64.0526Z" fill="#ECF8FF"/>
<path d="M40.7944 112.935C39.6087 112.935 38.6475 113.897 38.6475 115.082V127.964C38.6475 129.15 39.6087 130.111 40.7944 130.111H53.6766C54.8623 130.111 55.8236 129.15 55.8236 127.964V115.082C55.8236 113.896 54.8623 112.935 53.6766 112.935H40.7944ZM51.5297 125.818H42.9413V117.229H51.5297V125.818Z" fill="#ECF8FF"/>
<path d="M82.2469 64.0526C81.4086 63.2146 80.0489 63.2146 79.2106 64.0526L71.6194 71.6438L68.0769 68.101C67.2386 67.2629 65.879 67.2629 65.0406 68.101C64.202 68.9396 64.202 70.299 65.0406 71.1376L70.1013 76.1983C70.5205 76.6175 71.0699 76.8271 71.6194 76.8271C72.1687 76.8271 72.7184 76.6175 73.1376 76.1983L82.2469 67.0893C83.0856 66.2503 83.0856 64.8913 82.2469 64.0526Z" fill="#ECF8FF"/>
<path d="M82.2469 89.6857C81.4086 88.8476 80.0489 88.8476 79.2106 89.6857L71.6194 97.2771L68.0769 93.7343C67.2386 92.8963 65.879 92.8963 65.0406 93.7343C64.202 94.573 64.202 95.9323 65.0406 96.771L70.1013 101.832C70.5039 102.234 71.05 102.46 71.6194 102.46C72.1889 102.46 72.735 102.234 73.1376 101.832L82.2469 92.7223C83.0856 91.8837 83.0856 90.5243 82.2469 89.6857Z" fill="#ECF8FF"/>
<path d="M66.5591 112.935C65.3734 112.935 64.4121 113.897 64.4121 115.082V127.964C64.4121 129.15 65.3734 130.111 66.5591 130.111H79.4413C80.627 130.111 81.5882 129.15 81.5882 127.964V115.082C81.5882 113.896 80.627 112.935 79.4413 112.935H66.5591ZM77.2943 125.818H68.706V117.229H77.2943V125.818Z" fill="#ECF8FF"/>
<path d="M56.4823 89.6857C55.6439 88.8476 54.2843 88.8476 53.4459 89.6857L45.8548 97.2771L42.3123 93.7343C41.4739 92.8963 40.1143 92.8963 39.276 93.7343C38.4373 94.573 38.4373 95.9323 39.276 96.771L44.3366 101.832C44.7393 102.234 45.2853 102.46 45.8548 102.46C46.4243 102.46 46.9703 102.234 47.373 101.832L56.4823 92.7223C57.3206 91.8837 57.3206 90.5243 56.4823 89.6857Z" fill="#ECF8FF"/>
</svg>
