<svg width="16" height="16" viewBox="0 0 16 16" fill="none" xmlns="http://www.w3.org/2000/svg">
<path d="M12.5231 4.24171C12.1439 3.4942 11.583 2.85398 10.8917 2.37993C10.2005 1.90588 9.4012 1.61321 8.56729 1.52881C8.19005 1.49096 7.80997 1.49096 7.43274 1.52881C6.59884 1.61326 5.79955 1.90593 5.10829 2.37992C4.41703 2.85392 3.85598 3.49404 3.47669 4.24146C2.99948 5.19514 2.81516 6.2687 2.94693 7.32693C3.0787 8.38517 3.52068 9.38074 4.21719 10.1883L7.61364 14.3177C7.66054 14.3747 7.7195 14.4207 7.78629 14.4522C7.85307 14.4838 7.92602 14.5002 7.99989 14.5002C8.07375 14.5002 8.1467 14.4838 8.21348 14.4522C8.28027 14.4207 8.33923 14.3747 8.38614 14.3177L11.7826 10.1883C12.4791 9.38079 12.9211 8.38525 13.0528 7.32706C13.1846 6.26887 13.0003 5.19535 12.5231 4.24171ZM7.99989 8.50001C7.60432 8.50001 7.21764 8.38272 6.88875 8.16295C6.55985 7.94319 6.3035 7.63083 6.15213 7.26538C6.00075 6.89993 5.96114 6.4978 6.03832 6.10983C6.11549 5.72187 6.30597 5.36551 6.58567 5.0858C6.86538 4.8061 7.22174 4.61561 7.6097 4.53844C7.99767 4.46127 8.3998 4.50088 8.76525 4.65226C9.1307 4.80363 9.44306 5.05998 9.66282 5.38887C9.88259 5.71777 9.99989 6.10445 9.99989 6.50001C9.99926 7.03026 9.78835 7.5386 9.41341 7.91354C9.03847 8.28848 8.53013 8.49939 7.99989 8.50001Z" fill="#E31E24"/>
</svg>
