<svg width="16" height="16" viewBox="0 0 16 16" fill="none" xmlns="http://www.w3.org/2000/svg">
<path d="M15.1396 14.2L12.473 11.5333C13.4269 10.3573 13.9521 8.8916 13.9621 7.37737C13.9721 5.86313 13.4663 4.39061 12.5279 3.20215C11.5895 2.01368 10.2745 1.18008 8.79923 0.838541C7.32399 0.497001 5.77642 0.667869 4.41121 1.32302C3.04601 1.97818 1.94452 3.07859 1.28802 4.44314C0.631525 5.8077 0.459134 7.3551 0.799223 8.83068C1.13931 10.3063 1.97162 11.6221 3.15916 12.5617C4.3467 13.5012 5.81872 14.0085 7.33297 14C8.87643 14.0042 10.3724 13.4662 11.5596 12.48L14.193 15.1467L15.1396 14.2ZM7.33297 12.6667C6.27813 12.6667 5.24699 12.3539 4.36992 11.7678C3.49286 11.1818 2.80928 10.3488 2.40561 9.37429C2.00194 8.39976 1.89632 7.3274 2.10211 6.29283C2.3079 5.25827 2.81585 4.30796 3.56173 3.56208C4.30761 2.8162 5.25792 2.30825 6.29248 2.10246C7.32705 1.89667 8.3994 2.00229 9.37394 2.40596C10.3485 2.80963 11.1814 3.49321 11.7675 4.37028C12.3535 5.24734 12.6663 6.27848 12.6663 7.33332C12.6663 8.7478 12.1044 10.1044 11.1042 11.1046C10.104 12.1047 8.74745 12.6667 7.33297 12.6667Z" fill="black"/>
</svg>
