<svg width="24" height="24" viewBox="0 0 24 24" fill="none" xmlns="http://www.w3.org/2000/svg">
<path d="M12 0C5.37258 0 0 5.37258 0 12C0 18.6274 5.37258 24 12 24C18.6274 24 24 18.6274 24 12C24 5.37258 18.6274 0 12 0ZM19.0421 16.3847L16.9721 16.4131C16.9721 16.4131 16.5269 16.5015 15.9427 16.0973C15.1674 15.5652 14.4379 14.1837 13.8695 14.3605C13.3011 14.5373 13.3106 15.7815 13.3106 15.7815C13.3124 15.9275 13.2676 16.0702 13.1827 16.1889C13.0632 16.2913 12.9158 16.3556 12.7596 16.3737H11.8422C11.8422 16.3737 9.78956 16.4953 7.99744 14.6226C6.02691 12.5889 4.29164 8.52628 4.29164 8.52628C4.29164 8.52628 4.18945 8.29064 4.30111 8.13155C4.39762 7.99402 4.63566 7.97925 4.75584 7.97367C5.27395 7.94944 6.83058 7.95947 6.83058 7.95947C6.9608 7.95623 7.04831 7.96308 7.20952 8.03367C7.34808 8.10216 7.45317 8.20416 7.52058 8.36841C7.76006 8.96475 8.03803 9.54492 8.3527 10.1053C9.27797 11.7047 9.70903 12.0537 10.0232 11.8831C10.4796 11.6337 10.339 9.62367 10.339 9.62367C10.339 9.62367 10.339 8.89261 10.1085 8.56894C9.93497 8.3662 9.69023 8.23791 9.42483 8.21053C9.30009 8.19314 9.50536 7.9042 9.77063 7.77473C10.1685 7.57894 10.8728 7.57894 11.7032 7.57894C12.0687 7.56516 12.4343 7.60238 12.7896 7.68947C13.5538 7.8742 13.2948 8.58473 13.2948 10.2931C13.2948 10.8395 13.1954 11.61 13.5901 11.8721C13.7606 11.981 14.1743 11.8879 15.2132 10.1258C15.5447 9.54263 15.8323 8.93573 16.0738 8.30995C16.1203 8.21048 16.1908 8.12423 16.279 8.05889C16.3723 8.01244 16.4772 7.99434 16.5806 8.00677L18.9112 7.99097C18.9112 7.99097 19.6106 7.9073 19.7243 8.22464C19.838 8.54203 19.4622 9.32991 18.5101 10.593C16.947 12.6772 16.7732 12.4878 18.0712 13.6862C19.3106 14.8372 19.568 15.3978 19.6106 15.4672C20.1253 16.3169 19.0421 16.3847 19.0421 16.3847Z" fill="#0084BD"/>
</svg>
