<?xml version="1.0" encoding="utf-8"?><svg xmlns="http://www.w3.org/2000/svg" xmlns:xlink="http://www.w3.org/1999/xlink"><symbol viewBox="0 0 22 24" id="basket" xmlns="http://www.w3.org/2000/svg"><g clip-path="url(#aa)"><path d="M10.363 18.443a2.046 2.046 0 00-2.045 2.042 2.046 2.046 0 004.09 0 2.046 2.046 0 00-2.045-2.042zm6.134 0a2.046 2.046 0 00-2.045 2.042 2.046 2.046 0 004.089 0 2.046 2.046 0 00-2.044-2.042zm3.978-8.199L7.413 6.891a.614.614 0 00-.75.73L8.67 16.4h-.786L5.482 5.895a.613.613 0 00-.474-.464l-4.27-.882A.614.614 0 00.489 5.75l3.885.802L6.797 17.15a.613.613 0 00.598.477h12.07a.615.615 0 00.607-.53l.858-6.175a.613.613 0 00-.455-.678zm-8.14 3.91a.613.613 0 01-1.227 0v-2.696a.613.613 0 011.227 0v2.696zm2.625 0a.613.613 0 01-1.227 0v-1.88a.613.613 0 011.227 0v1.88zm2.625 0a.613.613 0 01-1.227 0v-1.226a.613.613 0 011.227 0v1.226z"/></g><path fill-rule="evenodd" clip-rule="evenodd" d="M16.268 4.568a2.996 2.996 0 00-1.693-.523c-.627 0-1.21.193-1.693.523-.28-.843-.492-1.752-.492-2.383C12.39.98 13.37 0 14.575 0s2.185.98 2.185 2.185c0 .631-.212 1.54-.492 2.383zm-4.722 2.274l.024.006v-.011l-.024.005zm4.972 1.217c-1.333-.33-2.766-.681-4.129-1.013a2.185 2.185 0 114.129 1.013zm4.436 1.103c-.866-.217-2.155-.538-3.618-.9a2.995 2.995 0 00.243-1.425c.87.18 1.762.45 2.308.765.596.344.969.928 1.067 1.56zM9.869 6.439c-.36-.086-.706-.167-1.03-.243a2.19 2.19 0 01-.376-2.667 2.188 2.188 0 013.147-.7c.098.738.338 1.599.61 2.353a3.01 3.01 0 00-.449.774c-.628.113-1.305.278-1.902.483zm10.124.075a3.43 3.43 0 01-.217.114c-.696-.295-1.587-.526-2.397-.672a3.01 3.01 0 00-.449-.774c.262-.727.494-1.553.599-2.273.095-.067.189-.128.278-.18a2.188 2.188 0 012.986.8 2.188 2.188 0 01-.8 2.985z"/><defs><clipPath id="aa"><path transform="translate(0 3.064)" d="M0 0h20.936v20.936H0z"/></clipPath></defs></symbol><symbol viewBox="0 0 18 34" id="chevron-left" xmlns="http://www.w3.org/2000/svg"><path d="M17.5 1l-16 16 16 16"/></symbol><symbol viewBox="0 0 18 34" id="chevron-right" xmlns="http://www.w3.org/2000/svg"><path d="M.5 1l16 16-16 16"/></symbol><symbol viewBox="0 0 16 14" id="exit" xmlns="http://www.w3.org/2000/svg"><path fill-rule="evenodd" clip-rule="evenodd" d="M12.08 9.667V11a2.666 2.666 0 01-2.666 2.667H2.747A2.666 2.666 0 01.081 11V3A2.666 2.666 0 012.747.333h6.667A2.667 2.667 0 0112.081 3v1.333a.667.667 0 01-1.334 0V3c0-.736-.597-1.333-1.333-1.333H2.747c-.736 0-1.333.597-1.333 1.333v8c0 .737.597 1.333 1.333 1.333h6.667c.736 0 1.333-.596 1.333-1.333V9.667a.667.667 0 011.334 0zm1.644-3.334l-.862-.861a.668.668 0 01.943-.943l2 2c.26.26.26.682 0 .943l-2 2a.667.667 0 01-.943-.943l.862-.862H8a.667.667 0 010-1.334h5.724z"/></symbol><symbol viewBox="0 0 14 9" id="input-location-arrow" xmlns="http://www.w3.org/2000/svg"><path d="M1.625 1.285l5.43 5.43 5.428-5.43"/></symbol><symbol viewBox="0 0 12 14" id="loc-point" xmlns="http://www.w3.org/2000/svg"><path d="M10.524 3.242A5 5 0 006.568.529a5.682 5.682 0 00-1.135 0 5.001 5.001 0 00-3.956 2.713 5.403 5.403 0 00.74 5.946l3.397 4.13a.5.5 0 00.773 0l3.396-4.13a5.403 5.403 0 00.74-5.946zM6 7.5a2 2 0 110-4 2 2 0 010 4z"/></symbol></svg>