<svg width="90" height="90" viewBox="0 0 90 90" fill="none" xmlns="http://www.w3.org/2000/svg">
<path d="M80.6009 59.7958L74.7344 58.3941V56.3334C77.9748 54.4191 80.1543 50.8919 80.1543 46.8633V39.0855C80.1543 33.0241 75.2227 28.0927 69.1613 28.0927H67.9455C64.7092 28.0927 61.7958 29.4991 59.7824 31.7321C57.8325 25.4206 51.9434 20.8217 45.0001 20.8217C38.0567 20.8217 32.1677 25.4203 30.2177 31.7321C28.2043 29.4991 25.2909 28.0927 22.0546 28.0927H20.8389C14.7774 28.0927 9.84568 33.0241 9.84568 39.0855V46.8633C9.84568 50.8917 12.0252 54.4191 15.2656 56.3334V58.3941L9.39902 59.7958C3.86647 61.1176 0.00244141 66.0133 0.00244141 71.7015V76.9928C0.00244141 77.9635 0.789591 78.7505 1.76008 78.7505H15.9566C15.8676 79.4434 15.8217 80.1488 15.8217 80.8634V86.4845H5.27554C4.30487 86.4845 3.5179 87.2717 3.5179 88.2421C3.5179 89.2128 4.30505 89.9998 5.27554 89.9998H84.7243C85.6949 89.9998 86.4819 89.2126 86.4819 88.2421C86.4819 87.2715 85.6947 86.4845 84.7243 86.4845H74.1781V80.8718C74.1781 80.1541 74.1318 79.446 74.0422 78.7506H88.2397C89.2104 78.7506 89.9974 77.9635 89.9974 76.993V71.7016C89.9975 66.0133 86.1333 61.1175 80.6009 59.7958ZM60.4682 39.0855C60.468 34.9624 63.8224 31.608 67.9457 31.608H69.1614C73.2847 31.608 76.6392 34.9624 76.6392 39.0855V39.5362C74.1026 39.5053 71.6429 38.7579 69.5162 37.3662C68.9315 36.9834 68.1758 36.9834 67.5913 37.3662C65.4646 38.7581 63.0049 39.5055 60.4683 39.5362V39.0855H60.4682ZM60.468 45.4297V43.052C63.3139 43.0246 66.0845 42.2835 68.5534 40.8929C71.0223 42.2837 73.7929 43.0246 76.6388 43.052V46.8635C76.6388 50.9868 73.2844 54.3413 69.1611 54.3413H67.9454C63.8221 54.3413 60.4676 50.9868 60.4676 46.8635V45.4297H60.468ZM63.8391 65.6614C63.1249 65.3804 62.385 65.1436 61.6199 64.9608L56.0335 63.626C56.448 63.4557 56.8764 63.3158 57.3166 63.2103L62.869 61.8797L63.8391 65.6614ZM62.384 56.3403V58.3811L56.4972 59.7917C55.2244 60.0967 54.0185 60.6008 52.9187 61.2808V58.7119C55.3279 57.27 57.3141 55.1919 58.6435 52.7111C59.582 54.1987 60.8663 55.4462 62.384 56.3403ZM56.9527 45.4297C56.9527 52.0202 51.5908 57.3821 45.0002 57.3821C38.4097 57.3821 33.0478 52.0202 33.0478 45.4297V40.2807H34.9796C39.9144 40.2807 44.6158 38.706 48.4809 35.8464L48.8838 36.4485C50.4887 38.8479 53.1707 40.2807 56.0576 40.2807H56.9529V45.4297H56.9527ZM33.0475 36.2894C33.0475 29.699 38.4093 24.3371 44.9999 24.3371C51.5905 24.3371 56.9523 29.699 56.9523 36.2896V36.7652H56.0571C54.3462 36.7652 52.7566 35.9162 51.8053 34.4939L51.1552 33.5222C51.6822 32.9875 52.1871 32.4255 52.6652 31.834C53.2755 31.079 53.1581 29.9723 52.4029 29.3622C51.6485 28.7519 50.5414 28.8691 49.9311 29.6244C46.2638 34.1624 40.8142 36.765 34.9795 36.765H33.0475V36.2894ZM31.3564 52.7111C32.6889 55.1975 34.681 57.2795 37.0975 58.7216V61.2906C35.9932 60.6056 34.7817 60.0985 33.5025 59.7919L27.616 58.3813V56.3404C29.1335 55.4462 30.4178 54.1987 31.3564 52.7111ZM33.9471 63.6183L28.3685 64.9551C27.6081 65.1374 26.8728 65.3728 26.163 65.6521L27.131 61.88L32.6832 63.2107C33.1165 63.3144 33.5386 63.4515 33.9471 63.6183ZM13.3613 39.0855C13.3611 34.9624 16.7156 31.608 20.8389 31.608H22.0546C26.1779 31.608 29.5323 34.9624 29.5323 39.0855V39.5362C26.9958 39.5053 24.5361 38.7579 22.4093 37.3662C21.8247 36.9834 21.069 36.9834 20.4845 37.3662C18.3577 38.7581 15.8982 39.5055 13.3615 39.5362V39.0855H13.3613ZM13.3611 46.8635V43.052C16.207 43.0246 18.9777 42.2835 21.4466 40.8929C23.9154 42.2837 26.6861 43.0246 29.532 43.052V45.4297V46.8635C29.532 50.9868 26.1776 54.3413 22.0542 54.3413H20.8385C16.7156 54.3413 13.3611 50.9868 13.3611 46.8635ZM16.8135 75.2357H3.5179V75.2354V71.7016C3.5179 67.6471 6.27222 64.1571 10.2157 63.2152L15.7502 61.893L18.3649 72.0852C17.7392 73.071 17.2176 74.1262 16.8135 75.2357ZM18.7812 57.6605C19.4481 57.7875 20.1354 57.8565 20.8387 57.8565H22.0544C22.7539 57.8565 23.4371 57.7882 24.1005 57.6627V59.5453L21.898 68.1296C21.6406 68.3368 21.3879 68.5493 21.1444 68.7712L18.7812 59.5593V57.6605ZM19.3374 86.4847V80.8639C19.3374 76.6014 21.4072 72.7628 24.705 70.4112L40.7785 86.4847H19.3374ZM27.9897 68.7242C28.3801 68.5901 28.7791 68.4716 29.1878 68.3737L37.5824 66.3621L41.7082 82.4428L27.9897 68.7242ZM40.6127 64.0277V60.2632C42.0042 60.6754 43.4764 60.8979 44.9999 60.8979C46.5292 60.8979 48.0068 60.6738 49.4032 60.2584V64.0479L45.0108 81.1692L40.6127 64.0277ZM52.4339 66.3807L60.8032 68.3801C61.2242 68.4806 61.6346 68.6031 62.0365 68.7422L48.3056 82.4732L52.4339 66.3807ZM70.6626 86.4847H49.2656L65.3155 70.4346C68.6014 72.7867 70.6626 76.6175 70.6626 80.872V86.4847ZM71.2191 59.5597L68.8542 68.7779C68.6119 68.5573 68.3606 68.346 68.1046 68.1398L65.8996 59.5456V57.663C66.563 57.7885 67.2465 57.8569 67.9457 57.8569H69.1614C69.8649 57.8569 70.5522 57.7878 71.2191 57.6609V59.5597ZM86.4821 75.2354H73.1838C72.7797 74.1276 72.2585 73.0745 71.6336 72.0901L74.2496 61.8928L79.7841 63.2151C83.7277 64.1571 86.4819 67.6471 86.4819 71.7015V75.2354H86.4821Z" fill="#238ECE"/>
<path d="M44.9998 0C44.0293 0 43.2422 0.78715 43.2422 1.75764V9.28355C43.2422 10.2544 44.0292 11.0412 44.9998 11.0412C45.9705 11.0412 46.7575 10.254 46.7575 9.28355V1.75764C46.7576 0.78715 45.9705 0 44.9998 0Z" fill="#238ECE"/>
<path d="M46.2426 14.1531C45.9158 13.8263 45.4623 13.6381 45 13.6381C44.5358 13.6381 44.0842 13.8261 43.7572 14.1531C43.4303 14.4801 43.2422 14.932 43.2422 15.3959C43.2422 15.8582 43.4301 16.3117 43.7572 16.6387C44.0842 16.9656 44.5377 17.1537 45 17.1537C45.4623 17.1537 45.9158 16.9656 46.2426 16.6387C46.5696 16.3099 46.7578 15.8582 46.7578 15.3959C46.7578 14.9318 46.5697 14.4801 46.2426 14.1531Z" fill="#238ECE"/>
<path d="M33.3112 14.5519L26.7983 8.0404C26.1119 7.35397 24.999 7.35433 24.3124 8.04075C23.6262 8.72718 23.6264 9.84005 24.3128 10.5267L30.8258 17.0381C31.169 17.3813 31.619 17.5528 32.0686 17.5528C32.5186 17.5528 32.9685 17.3811 33.3118 17.0378C33.9978 16.3515 33.9977 15.2385 33.3112 14.5519Z" fill="#238ECE"/>
<path d="M65.9501 7.76724C65.2637 7.08134 64.1512 7.08099 63.4642 7.76724L56.5546 14.6767C55.8682 15.3631 55.8682 16.476 56.5546 17.1626C56.8981 17.5059 57.3479 17.6775 57.7977 17.6775C58.2476 17.6775 58.6974 17.5057 59.0407 17.1626L65.9503 10.2531C66.6366 9.56672 66.6366 8.45367 65.9501 7.76724Z" fill="#238ECE"/>
</svg>
