<svg width="85" height="84" viewBox="0 0 85 84" fill="none" xmlns="http://www.w3.org/2000/svg">
<path d="M64.5779 53.991L54.5137 51.4749V49.6073C56.5664 49.1006 61.088 47.7816 63.3166 45.5529C66.5585 42.3124 67.6387 29.4223 67.6387 26.25C67.6387 24.7747 67.6269 22.1406 64.217 19.4053C62.2272 11.0513 56.8289 5.28937 49.2637 3.402V2.625C49.2637 1.17731 48.0864 0 46.6387 0H38.7637C37.316 0 36.1387 1.17731 36.1387 2.625V3.402C28.5734 5.28937 23.1751 11.0513 21.1854 19.4053C17.7755 22.1406 17.7637 24.7747 17.7637 26.25C17.7637 29.4223 18.8439 42.3124 22.0857 45.5529C24.3144 47.7816 28.8359 49.1006 30.8887 49.6073V51.4749L20.8244 53.991C14.3853 55.6014 9.88867 61.3607 9.88867 67.998V82.6875C9.88867 83.412 10.4767 84 11.2012 84C11.9257 84 12.5137 83.412 12.5137 82.6875V81.375H23.0137V82.6875C23.0137 83.412 23.6017 84 24.3262 84C25.0507 84 25.6387 83.412 25.6387 82.6875V78.75H38.7637V82.6875C38.7637 83.412 39.3517 84 40.0762 84C40.8007 84 41.3887 83.412 41.3887 82.6875V57.6726C41.8244 57.7185 42.2615 57.75 42.7012 57.75C43.1409 57.75 43.5779 57.7185 44.0137 57.6726V82.6875C44.0137 83.412 44.6017 84 45.3262 84C46.0507 84 46.6387 83.412 46.6387 82.6875V78.75H59.7637V82.6875C59.7637 83.412 60.3517 84 61.0762 84C61.8007 84 62.3887 83.412 62.3887 82.6875V81.375H72.8887V82.6875C72.8887 83.412 73.4767 84 74.2012 84C74.9257 84 75.5137 83.412 75.5137 82.6875V67.998C75.5137 61.3607 71.017 55.6014 64.5779 53.991ZM33.5137 51.8136V47.1634C34.3655 47.8695 35.2475 48.4903 36.1387 49.0179V53.3256C34.9824 52.752 34.0557 52.1732 33.5137 51.8136ZM29.5762 34.125V29.3803C30.3899 28.4563 32.3009 25.9875 33.1199 22.6564C35.821 22.4437 38.9815 22.3125 42.7012 22.3125C46.4142 22.3125 49.5708 22.4424 52.2693 22.6551C53.0791 25.9586 54.9967 28.4392 55.8262 29.3856V34.125C55.8262 41.496 48.4906 48.5625 42.7012 48.5625C38.2085 48.5625 29.5762 42.4659 29.5762 34.125ZM25.6387 30.1875C25.6387 29.5759 25.7804 29.3606 25.8067 29.3462C25.8985 29.2976 26.3107 29.3147 26.9512 29.6323V33.4661C26.1295 32.6117 25.6387 31.1168 25.6387 30.1875ZM23.7421 20.7795C27.337 18.3829 34.0702 17.0625 42.7012 17.0625C51.3322 17.0625 58.0653 18.3829 61.6602 20.7795C62.2128 21.1483 62.6669 21.5053 63.0528 21.8544C58.9722 20.4159 52.1827 19.6875 42.7012 19.6875C33.2197 19.6875 26.4301 20.4159 22.3495 21.8544C22.7341 21.5053 23.1882 21.1483 23.7421 20.7795ZM58.4512 29.6323C59.0917 29.3147 59.5038 29.2976 59.5957 29.3462C59.6219 29.3606 59.7637 29.5759 59.7637 30.1875C59.7637 31.1168 59.2728 32.6117 58.4512 33.4661V29.6323ZM58.4512 23.625V26.8367C58.2845 26.8787 58.1152 26.9325 57.9445 26.9942C57.7503 27.0047 57.556 27.0427 57.3762 27.1438C56.699 26.2867 55.6884 24.7892 55.0662 22.9176C56.3236 23.0619 57.4445 23.2286 58.4433 23.4084C58.4446 23.4806 58.4512 23.5528 58.4512 23.625ZM30.3335 22.9176C29.6956 24.8246 28.6509 26.3537 27.9762 27.2029C27.6258 27.0375 27.2845 26.9207 26.9512 26.8354V23.625C26.9512 23.5528 26.9577 23.4806 26.959 23.4084C27.9579 23.2286 29.0774 23.0633 30.3335 22.9176ZM61.4607 43.6971C59.971 45.1867 56.7082 46.3063 54.5137 46.8969V44.5292C56.3407 42.2914 57.7122 39.5981 58.2189 36.6043C61.1129 35.8522 62.3887 32.172 62.3887 30.1875C62.3887 28.4826 61.7219 27.6189 61.0762 27.1806V23.9886C63.8167 24.7262 65.0137 25.5754 65.0137 26.25C65.0137 31.0065 63.5135 41.6443 61.4607 43.6971ZM60.8793 17.3801C57.9393 16.0506 53.9834 15.1436 49.2637 14.7184V6.11756C54.7079 7.69256 58.7964 11.6721 60.8793 17.3801ZM46.6387 2.625V14.5386C45.3695 14.4742 44.0583 14.4375 42.7012 14.4375C41.344 14.4375 40.0329 14.4742 38.7637 14.5386V2.625H46.6387ZM36.1387 6.11756V14.7184C31.4176 15.1449 27.4617 16.0519 24.523 17.3801C26.606 11.6721 30.6944 7.69256 36.1387 6.11756ZM23.9416 43.6971C21.8889 41.6443 20.3887 31.0065 20.3887 26.25C20.3887 25.5754 21.5857 24.7262 24.3262 23.9886V27.1806C23.6804 27.6189 23.0137 28.4826 23.0137 30.1875C23.0137 32.1694 24.2868 35.8444 27.1743 36.603C27.6757 39.6782 29.0643 42.3544 30.8887 44.5476V46.8969C28.6942 46.3063 25.4313 45.1867 23.9416 43.6971ZM12.5137 78.75V76.125H23.0137V78.75H12.5137ZM25.6387 76.125V73.5H38.7637V76.125H25.6387ZM38.7637 70.875H25.6387V69.5625C25.6387 68.838 25.0507 68.25 24.3262 68.25C23.6017 68.25 23.0137 68.838 23.0137 69.5625V73.5H12.5137V67.998C12.5137 62.5682 16.1926 57.855 21.461 56.5386L31.9374 53.9188C32.7944 54.5016 34.6332 55.6526 36.9301 56.5451C36.9393 56.5491 36.9485 56.5517 36.9577 56.5556C37.5352 56.7788 38.1376 56.9848 38.7637 57.1607V70.875ZM38.7637 54.4136V50.3121C40.1982 50.8764 41.5619 51.1875 42.7012 51.1875C45.4784 51.1875 48.925 49.707 51.8887 47.2067V51.8136C50.4935 52.7415 46.5363 55.125 42.7012 55.125C41.365 55.125 40.0171 54.831 38.7637 54.4136ZM53.465 53.9188L63.9414 56.5386C69.2097 57.855 72.8887 62.5669 72.8887 67.998V73.5H62.3887V69.5625C62.3887 68.838 61.8007 68.25 61.0762 68.25C60.3517 68.25 59.7637 68.838 59.7637 69.5625V70.875H46.6387V57.1607C49.765 56.28 52.3887 54.6499 53.465 53.9188ZM46.6387 76.125V73.5H59.7637V76.125H46.6387ZM62.3887 78.75V76.125H72.8887V78.75H62.3887Z" fill="#238ECE"/>
<path d="M42.7012 7.875C43.426 7.875 44.0137 7.28737 44.0137 6.5625C44.0137 5.83763 43.426 5.25 42.7012 5.25C41.9763 5.25 41.3887 5.83763 41.3887 6.5625C41.3887 7.28737 41.9763 7.875 42.7012 7.875Z" fill="#238ECE"/>
</svg>
