<svg width="78" height="78" viewBox="0 0 78 78" fill="none" xmlns="http://www.w3.org/2000/svg">
<path d="M53.8796 23.4166C53.3577 23.0627 52.647 23.1983 52.2925 23.7204C51.9382 24.2426 52.0742 24.9531 52.5963 25.3075C60.1792 30.4535 64.7062 38.9893 64.7062 48.1406C64.7062 63.3451 52.3365 75.7148 37.132 75.7148C21.9275 75.7148 9.55781 63.3451 9.55781 48.1406C9.55781 44.9557 10.0906 41.8581 11.1422 38.9048L14.7891 44.217C15.0023 44.5273 15.3546 44.7129 15.7312 44.7129C16.1078 44.7129 16.46 44.5273 16.6733 44.217L24.2035 33.2484C25.3883 31.5288 26.0146 29.5139 26.0146 27.4219C26.0146 25.9572 25.7047 24.5642 25.1503 23.302C28.8628 21.5111 32.9807 20.5664 37.132 20.5664C38.4436 20.5664 39.759 20.6598 41.0498 20.8431L45.3306 27.0783C45.5437 27.3887 45.8961 27.5742 46.2727 27.5742C46.6492 27.5742 47.0015 27.3887 47.2146 27.0783L54.7452 16.1097C55.9297 14.3901 56.556 12.3752 56.556 10.2832C56.556 4.61297 51.943 0 46.2728 0C40.6026 0 35.9896 4.61297 35.9896 10.2832C35.9896 12.375 36.6157 14.3899 37.7994 16.1082L39.348 18.3638C38.611 18.3097 37.871 18.2812 37.1323 18.2812C32.58 18.2812 28.0632 19.3297 24.0015 21.3185C22.1268 18.785 19.1183 17.1387 15.7317 17.1387C10.0615 17.1387 5.44849 21.7516 5.44849 27.4219C5.44849 29.5139 6.07462 31.5288 7.25833 33.2469L9.57685 36.624C8.04838 40.2728 7.27265 44.1437 7.27265 48.1406C7.27265 64.6052 20.6675 78 37.132 78C53.5966 78 66.9914 64.6052 66.9914 48.1406C66.9914 38.2311 62.0897 28.9884 53.8796 23.4166ZM46.2727 2.28516C50.6827 2.28516 54.2707 5.87316 54.2707 10.2832C54.2707 11.9102 53.7841 13.4768 52.8623 14.8148L46.2727 24.4129L42.6559 19.1446C42.6478 19.1327 42.64 19.1208 42.6316 19.1092L39.6824 14.8133C38.7615 13.4766 38.2748 11.9099 38.2748 10.2832C38.2746 5.87316 41.8626 2.28516 46.2727 2.28516ZM7.73334 27.4219C7.73334 23.0118 11.3213 19.4238 15.7314 19.4238C20.1414 19.4238 23.7294 23.0118 23.7294 27.4219C23.7294 29.0489 23.2427 30.6153 22.3209 31.9535L15.7314 41.5516L9.14084 31.952C8.22008 30.6153 7.73334 29.0489 7.73334 27.4219Z" fill="#00086A"/>
<path d="M21.4441 27.4219C21.4441 24.2717 18.8814 21.709 15.7312 21.709C12.581 21.709 10.0183 24.2717 10.0183 27.4219C10.0183 30.572 12.581 33.1348 15.7312 33.1348C18.8814 33.1348 21.4441 30.572 21.4441 27.4219ZM12.3035 27.4219C12.3035 25.5319 13.8412 23.9941 15.7312 23.9941C17.6212 23.9941 19.1589 25.5319 19.1589 27.4219C19.1589 29.3119 17.6212 30.8496 15.7312 30.8496C13.8412 30.8496 12.3035 29.3119 12.3035 27.4219Z" fill="#00086A"/>
<path d="M27.9915 46.1141C24.8413 46.1141 22.2786 48.6769 22.2786 51.827C22.2786 54.9772 24.8413 57.5399 27.9915 57.5399C31.1416 57.5399 33.7043 54.9772 33.7043 51.827C33.7043 48.6769 31.1416 46.1141 27.9915 46.1141ZM27.9915 55.2548C26.1015 55.2548 24.5637 53.717 24.5637 51.827C24.5637 49.937 26.1015 48.3993 27.9915 48.3993C29.8814 48.3993 31.4192 49.937 31.4192 51.827C31.4192 53.717 29.8816 55.2548 27.9915 55.2548Z" fill="#00086A"/>
<path d="M27.9915 41.5438C22.3212 41.5438 17.7083 46.1568 17.7083 51.827C17.7083 53.919 18.3344 55.9339 19.5181 57.652L27.0495 68.6222C27.2626 68.9325 27.615 69.118 27.9916 69.118C28.3682 69.118 28.7204 68.9325 28.9335 68.6222L36.4641 57.6536C37.6487 55.9341 38.275 53.9192 38.275 51.827C38.2747 46.1569 33.6617 41.5438 27.9915 41.5438ZM34.5811 56.3586L27.9915 65.9568L21.4009 56.3571C20.4801 55.0205 19.9934 53.4539 19.9934 51.827C19.9934 47.417 23.5814 43.829 27.9915 43.829C32.4015 43.829 35.9895 47.417 35.9895 51.827C35.9895 53.4542 35.5029 55.0206 34.5811 56.3586Z" fill="#00086A"/>
<path d="M46.2727 15.9961C49.4229 15.9961 51.9856 13.4334 51.9856 10.2832C51.9856 7.13304 49.4229 4.57031 46.2727 4.57031C43.1225 4.57031 40.5598 7.13304 40.5598 10.2832C40.5598 13.4334 43.1227 15.9961 46.2727 15.9961ZM46.2727 6.85547C48.1627 6.85547 49.7004 8.39323 49.7004 10.2832C49.7004 12.1732 48.1628 13.7109 46.2727 13.7109C44.3826 13.7109 42.845 12.1732 42.845 10.2832C42.845 8.39323 44.3827 6.85547 46.2727 6.85547Z" fill="#00086A"/>
<path d="M71.4094 6.85547H59.9836C59.3525 6.85547 58.8411 7.36689 58.8411 7.99805C58.8411 8.62921 59.3525 9.14062 59.9836 9.14062H71.4094C72.0406 9.14062 72.552 8.62921 72.552 7.99805C72.552 7.36689 72.0406 6.85547 71.4094 6.85547Z" fill="#00086A"/>
<path d="M64.3638 13.7109C64.9949 13.7109 65.5063 13.1995 65.5063 12.5684C65.5063 11.9372 64.9949 11.4258 64.3638 11.4258H59.7935C59.1623 11.4258 58.6509 11.9372 58.6509 12.5684C58.6509 13.1995 59.1623 13.7109 59.7935 13.7109H64.3638Z" fill="#00086A"/>
<path d="M54.2708 49.5419C54.2708 48.9107 53.7593 48.3993 53.1282 48.3993H41.7024C41.0712 48.3993 40.5598 48.9107 40.5598 49.5419C40.5598 50.173 41.0712 50.6844 41.7024 50.6844H53.1282C53.7593 50.6844 54.2708 50.173 54.2708 49.5419Z" fill="#00086A"/>
<path d="M41.5122 52.9696C40.881 52.9696 40.3696 53.481 40.3696 54.1122C40.3696 54.7433 40.881 55.2548 41.5122 55.2548H46.0825C46.7137 55.2548 47.2251 54.7433 47.2251 54.1122C47.2251 53.481 46.7137 52.9696 46.0825 52.9696H41.5122Z" fill="#00086A"/>
</svg>
