<svg width="72" height="72" viewBox="0 0 72 72" fill="none" xmlns="http://www.w3.org/2000/svg">
<g clip-path="url(#clip0_1912_3956)">
<path d="M63.6 55.35H59.25C56.5206 55.35 54.3 53.1294 54.3 50.4V47.4C54.3 44.6706 56.5206 42.45 59.25 42.45C61.9794 42.45 64.2 44.6706 64.2 47.4V50.4C64.2 51.0627 64.7373 51.6 65.4 51.6C66.0627 51.6 66.6 51.0627 66.6 50.4V47.4C66.6 43.3472 63.3029 40.05 59.25 40.05C55.1972 40.05 51.9 43.3472 51.9 47.4C52.1028 49.2095 51.1302 52.457 53.8717 55.4025C51.2103 55.6965 48.9198 57.2381 47.6 59.4287C46.1289 56.987 43.4523 55.3502 40.4 55.3502H36C33.2706 55.3502 31.05 53.1296 31.05 50.4002V47.4002C31.05 44.6708 33.2706 42.4502 36 42.4502C38.7294 42.4502 40.95 44.6708 40.95 47.4002V50.4002C40.95 51.0629 41.4873 51.6002 42.15 51.6002C42.8127 51.6002 43.35 51.0629 43.35 50.4002V47.4002C43.35 44.6757 41.8587 42.2945 39.6508 41.025C40.6587 40.2993 41.8739 39.9002 43.1501 39.9002H47.55C51.6029 39.9002 54.9 36.603 54.9 32.5502V29.5502C54.9 25.8816 52.1982 22.8324 48.68 22.2871C48.0625 18.6099 45.0881 15.7827 41.3733 15.3576C44.1197 12.4125 43.1495 9.13635 43.35 7.35C43.35 3.29715 40.0529 0 36 0C31.9472 0 28.65 3.29715 28.65 7.35C28.8543 9.1698 27.8757 12.4074 30.6266 15.3575C29.4141 15.4983 28.2455 15.9 27.2024 16.542C26.6379 16.8894 26.462 17.6286 26.8094 18.1929C27.1566 18.7574 27.896 18.9335 28.4603 18.5859C29.4018 18.0063 30.4875 17.7 31.5999 17.7H40.4C43.2408 17.7 45.6194 19.6544 46.241 22.3191C42.8109 22.9386 40.2 25.9442 40.2 29.55C40.4043 31.3703 39.426 34.6067 42.1755 37.5564C40.2164 37.7822 38.4132 38.6868 37.0526 40.1266C32.6091 39.486 28.65 42.9432 28.65 47.4C28.8543 49.2195 27.8754 52.458 30.6272 55.4081C27.9848 55.7144 25.7123 57.2502 24.3999 59.4285C22.9289 56.9868 20.2523 55.35 17.1999 55.35H12.75C10.0206 55.35 7.8 53.1294 7.8 50.4V47.4C7.8 44.6706 10.0206 42.45 12.75 42.45C15.4794 42.45 17.7 44.6706 17.7 47.4V50.4C17.7 51.0627 18.2373 51.6 18.9 51.6C19.5627 51.6 20.1 51.0627 20.1 50.4V47.4C20.1 44.6868 18.6212 42.3141 16.4283 41.0408C17.4401 40.3049 18.663 39.9 19.95 39.9H24.3C28.3529 39.9 31.65 36.6029 31.65 32.55V29.55C31.65 25.8995 28.9745 22.8633 25.4816 22.2963C24.8652 18.5997 21.8673 15.7598 18.1287 15.3521C20.8683 12.408 19.8993 9.141 20.1 7.35C20.1 3.29715 16.8029 0 12.75 0C8.69715 0 5.4 3.29715 5.4 7.35C5.6046 9.1671 4.62375 12.4124 7.3827 15.3638C3.2292 15.8679 0 19.4127 0 23.7V30.75C0 31.4127 0.5373 31.95 1.2 31.95C1.8627 31.95 2.4 31.4127 2.4 30.75V23.7C2.4 20.3916 5.0916 17.7 8.4 17.7H17.2001C20.0379 17.7 22.4145 19.6502 23.0393 22.3104C19.5854 22.9104 16.95 25.9272 16.95 29.55C17.1548 31.3697 16.1742 34.6112 18.9312 37.5624C16.9851 37.7966 15.1979 38.6994 13.847 40.1322C9.38415 39.4616 5.4 42.932 5.4 47.4C5.6046 49.217 4.62375 52.4623 7.3827 55.4137C3.2292 55.9179 0 59.4627 0 63.75V70.8C0 71.4627 0.5373 72 1.2 72C1.8627 72 2.4 71.4627 2.4 70.8V63.75C2.4 60.4416 5.0916 57.75 8.4 57.75H17.2001C20.5085 57.75 23.2001 60.4416 23.2001 63.75V70.8C23.2001 71.4627 23.7374 72 24.4001 72C25.0628 72 25.6001 71.4627 25.6001 70.8V63.75C25.6001 60.4416 28.2917 57.75 31.6001 57.75H40.4001C43.7085 57.75 46.4001 60.4416 46.4001 63.75V70.8C46.4001 71.4627 46.9374 72 47.6001 72C48.2628 72 48.8001 71.4627 48.8001 70.8V63.75C48.8001 60.4416 51.4917 57.75 54.8001 57.75H63.6C66.9084 57.75 69.6 60.4416 69.6 63.75V70.8C69.6 71.4627 70.1373 72 70.8 72C71.4627 72 72 71.4627 72 70.8V63.75C72 59.1183 68.2317 55.35 63.6 55.35ZM31.05 7.35C31.05 4.6206 33.2706 2.4 36 2.4C38.7294 2.4 40.95 4.6206 40.95 7.35V10.35C40.95 13.0794 38.7294 15.3 36 15.3C33.2706 15.3 31.05 13.0794 31.05 10.35V7.35ZM42.6 29.55C42.6 26.8206 44.8206 24.6 47.55 24.6C50.2794 24.6 52.5 26.8206 52.5 29.55V32.55C52.5 35.2794 50.2794 37.5 47.55 37.5C44.8206 37.5 42.6 35.2794 42.6 32.55V29.55ZM7.8 7.35C7.8 4.6206 10.0206 2.4 12.75 2.4C15.4794 2.4 17.7 4.6206 17.7 7.35V10.35C17.7 13.0794 15.4794 15.3 12.75 15.3C10.0206 15.3 7.8 13.0794 7.8 10.35V7.35ZM19.35 29.55C19.35 26.8206 21.5706 24.6 24.3 24.6C27.0294 24.6 29.25 26.8206 29.25 29.55V32.55C29.25 35.2794 27.0294 37.5 24.3 37.5C21.5706 37.5 19.35 35.2794 19.35 32.55V29.55ZM64.6173 15.3638C67.3716 12.4173 66.3992 9.1344 66.6 7.35C66.6 3.29715 63.3029 0 59.25 0C55.1972 0 51.9 3.29715 51.9 7.35C52.1043 9.17385 51.1273 12.4023 53.8704 15.351C52.9142 15.4554 51.9924 15.7215 51.1203 16.1471C50.5247 16.4378 50.2775 17.1561 50.5682 17.7518C50.8589 18.3476 51.5772 18.5949 52.1729 18.3039C53.822 17.4992 54.1946 17.7 63.6 17.7C66.9084 17.7 69.6 20.3916 69.6 23.7V30.75C69.6 31.4127 70.1373 31.95 70.8 31.95C71.4627 31.95 72 31.4127 72 30.75V23.7C72 19.4127 68.7708 15.8679 64.6173 15.3638ZM54.3 7.35C54.3 4.6206 56.5206 2.4 59.25 2.4C61.9794 2.4 64.2 4.6206 64.2 7.35V10.35C64.2 13.0794 61.9794 15.3 59.25 15.3C56.5206 15.3 54.3 13.0794 54.3 10.35V7.35Z" fill="#00086A"/>
</g>
<defs>
<clipPath id="clip0_1912_3956">
<rect width="72" height="72" fill="white"/>
</clipPath>
</defs>
</svg>
