<svg width="92" height="86" viewBox="0 0 92 86" fill="none" xmlns="http://www.w3.org/2000/svg">
<g clip-path="url(#clip0)">
<path d="M90.9688 39.044C90.0451 37.6711 88.6976 36.5901 87.7135 35.8011C87.4239 35.5687 87.027 35.2504 86.9306 35.1432C86.6862 34.8504 86.4496 34.5779 86.2261 34.3211C85.686 33.6997 85.0738 32.9956 85.0175 32.6774C85.0028 32.5943 85.1365 32.2135 85.9215 31.4594C88.4594 29.0219 86.5479 25.8739 85.4057 23.9931C85.1211 23.5243 84.7112 22.8491 84.5734 22.4846C84.8642 21.9206 85.2322 21.0074 84.9201 19.9749C84.5266 18.6747 83.2627 17.8718 82.0786 17.2583C81.9227 17.1776 81.785 17.095 81.6518 17.0155C81.1502 16.7158 80.217 16.1573 79.0734 16.7198C78.4226 17.0397 77.9047 17.6215 76.99 18.8044C76.8214 19.0226 76.45 19.3495 76.0569 19.6957C75.788 19.9325 75.4832 20.2009 75.1747 20.4942C74.5057 21.1301 74.4786 22.1878 75.1145 22.857C75.7503 23.526 76.8082 23.5531 77.4773 22.9171C77.74 22.6675 78.0076 22.432 78.2663 22.204C78.7826 21.7493 79.2702 21.3198 79.6344 20.849C79.9048 20.4994 80.1062 20.2495 80.2561 20.0715C80.3432 20.1206 80.4378 20.1725 80.5407 20.2259C81.1566 20.545 81.4716 20.7713 81.6259 20.9026C81.5966 20.9628 81.5563 21.0407 81.5012 21.1406C80.6727 22.6384 81.6265 24.209 82.5489 25.728C83.0461 26.5466 83.56 27.3932 83.7557 28.1045C83.9298 28.7379 83.758 28.9031 83.6063 29.0488C80.1227 32.3948 82.1085 34.6789 83.7039 36.5141C83.9135 36.7551 84.1356 37.0106 84.3649 37.285C84.6543 37.632 85.0604 37.9575 85.6223 38.4084C87.7886 40.1459 88.9899 41.4304 88.56 42.6367C87.5586 42.5097 85.2881 41.4845 84.3787 40.7012C83.3581 39.822 80.634 38.1317 77.3941 41.422C74.8526 44.0031 73.7636 47.0373 74.4808 49.5381C74.8891 50.9623 75.8868 51.9928 77.1493 52.2947C78.4975 52.6164 79.9489 52.072 81.1308 50.7994C81.361 50.5519 82.3298 50.3924 82.9983 50.8327C84.0493 51.5251 83.3695 53.393 83.0285 54.1641C82.171 56.1026 82.9413 57.6406 83.5037 58.7636C84.1078 59.97 84.5069 60.7669 83.6061 62.397C82.8487 63.7673 82.1817 64.1498 81.9038 64.2257C82.23 63.2858 82.0881 62.5426 81.9506 61.8223C81.8734 61.4175 81.7858 60.9587 81.7439 60.3135C81.689 59.4683 81.2253 58.7722 80.4712 58.4037C78.8977 57.6345 76.5401 58.6663 75.8591 59.1289C75.8397 59.1421 75.788 59.1774 75.6276 59.1441C75.357 59.0879 75.0996 58.9033 74.9833 58.7789C74.7609 57.4085 73.6901 56.3695 72.2557 56.1609C70.5767 55.9178 68.9632 56.8451 68.3328 58.4179C67.6399 60.1475 67.6967 61.5156 67.7817 62.4132C67.7458 62.4137 67.7082 62.4139 67.6686 62.4139C65.6815 62.4139 64.7906 63.2365 64.2893 64.0925C63.2106 63.8599 62.0602 64.0865 61.0354 64.2885C60.8986 64.3154 60.7358 64.3475 60.576 64.3766C59.6633 61.9909 57.8965 61.2076 56.4305 61.3044C54.5092 61.432 52.9115 62.9786 52.714 64.9017C52.6478 65.5473 52.4942 65.7728 52.4534 65.8222C52.4064 65.8274 52.3145 65.8127 52.2617 65.7913C49.734 64.4087 48.1003 65.6056 47.2217 66.2494C47.0431 66.3803 46.777 66.5753 46.6634 66.6151C45.5587 66.4556 44.6061 65.9965 43.5771 65.1282C42.8716 64.5327 41.8173 64.6221 41.222 65.3275C40.6267 66.033 40.7159 67.0872 41.4213 67.6827C42.9428 68.9669 44.465 69.68 46.2115 69.927C46.3726 69.9499 46.5278 69.9602 46.6777 69.9602C47.8127 69.9602 48.6326 69.3593 49.1975 68.9455C49.9054 68.4265 49.9965 68.3599 50.6648 68.7277C51.442 69.1554 52.7838 69.4269 54.008 68.7855C54.8117 68.3642 55.8165 67.4077 56.0387 65.2431C56.0715 64.9239 56.3952 64.6564 56.6519 64.6395C57.0122 64.6096 57.4132 65.2406 57.6333 66.1593C57.8241 66.9562 58.5317 67.8037 59.9458 67.8037H59.9695C60.5023 67.8002 61.0749 67.6873 61.681 67.568C62.3067 67.4448 63.2517 67.2585 63.6182 67.3685C65.265 67.8618 66.4349 67.3795 67.0959 65.935C67.1146 65.8943 67.1373 65.8446 67.1567 65.8049C67.2324 65.7851 67.39 65.7565 67.6684 65.7565C68.7536 65.7565 69.8578 65.6458 70.5826 64.8414C71.3101 64.0342 71.2083 63.0568 71.1339 62.3432C71.0592 61.6252 70.9745 60.8117 71.4354 59.6614C71.4697 59.576 71.5168 59.526 71.5934 59.4941C71.6321 59.4778 71.6701 59.4702 71.703 59.4675C71.8995 60.7022 73.0235 61.6424 73.9572 62.0826C75.2711 62.7023 76.6489 62.6335 77.7359 61.8948C77.8876 61.7959 78.2075 61.6719 78.5178 61.5828C78.5671 61.9252 78.6216 62.2105 78.6673 62.4493C78.7809 63.0446 78.7709 63.0694 78.7338 63.1621C78.1044 64.7312 78.8137 66.5308 80.3484 67.2595C81.9524 68.0208 84.5338 67.6277 86.5313 64.0139C88.2833 60.8438 87.2053 58.6914 86.492 57.267C85.9917 56.2677 85.8864 55.9654 86.0849 55.5163C88.1994 50.7364 85.6641 48.5865 84.8368 48.0413C82.9179 46.7772 80.0992 46.9983 78.6815 48.5247C78.261 48.9772 77.972 49.0488 77.9321 49.0458C77.8943 49.0277 77.7257 48.8601 77.6493 48.4225C77.4703 47.3976 77.9349 45.6366 79.7756 43.7671C81.1713 42.3497 81.7398 42.8394 82.1968 43.2335C83.4936 44.3509 87.221 46.3168 89.4279 45.9357C90.2147 45.7995 90.8496 45.3824 91.2215 44.759C92.3402 42.978 92.2508 40.9496 90.9688 39.044Z" fill="#238ECE"/>
<path d="M49.5598 37.6899C51.0808 36.2491 51.7174 35.7783 52.8841 36.1481C53.5888 36.3717 53.6627 36.5347 53.7481 36.7232C54.1599 37.6319 55.043 38.5639 56.9083 37.8421C57.9623 37.4348 58.7057 37.1646 59.1294 37.0347C59.4897 37.2486 59.977 37.422 60.7333 37.4846C64.2434 37.7749 65.1226 36.2347 65.671 34.7672C65.8884 34.1856 65.9511 34.0888 66.187 33.972C66.234 33.9488 66.2902 33.9244 66.3532 33.898C67.2042 33.5405 67.6043 32.561 67.2468 31.71C66.8893 30.8588 65.9098 30.4585 65.0588 30.8162C64.9201 30.8745 64.8032 30.9273 64.7028 30.9771C63.2505 31.6961 62.8056 32.886 62.5401 33.597C62.4789 33.7604 62.3881 34.0032 62.3338 34.0815C62.2762 34.109 61.9571 34.2322 61.0095 34.1535C60.9188 34.146 60.8548 34.1368 60.8126 34.1294C59.7646 33.2514 58.7995 33.5343 56.2971 34.4951C55.8549 33.9168 55.1518 33.3605 53.8947 32.9616C50.7447 31.9623 48.7312 33.8701 47.261 35.2629C45.428 36.9993 44.1039 38.2536 40.5403 36.4073C39.7429 35.9942 38.8717 36.0445 38.1502 36.5457C37.7337 36.8348 37.4543 37.2122 37.2076 37.545C36.8373 38.0448 36.7129 38.1628 36.5416 38.1769C36.1955 38.2053 35.9111 38.305 35.6881 38.4098C35.6161 38.3356 35.5285 38.2395 35.4247 38.116C34.838 37.4179 34.0653 37.271 33.2519 37.3414C33.7516 35.917 34.0807 34.4047 34.0807 32.8917C34.0807 26.4552 28.8793 21.1826 22.4756 21.1139C22.4549 21.1131 22.4341 21.1128 22.4134 21.1128L22.3847 21.1131C22.34 21.1123 22.3158 21.1128 22.2886 21.1139C15.8847 21.1826 10.6833 26.4552 10.6833 32.8917C10.6833 35.7318 11.8429 38.5688 13.1134 40.8261C11.4926 41.6258 11.5117 43.3397 11.5227 44.2849C11.5371 45.5176 11.4997 45.8559 10.5028 46.2418C10.0221 46.4278 9.65394 46.8254 9.50553 47.3191C9.21941 48.27 9.17028 49.0746 9.86 49.9088C9.86468 49.9145 9.86986 49.9205 9.87488 49.9267C9.90195 50.0044 9.99521 50.3385 9.99521 51.2495C9.99521 52.2128 10.1739 53.0941 10.3173 53.802C10.41 54.2591 10.5486 54.9426 10.4976 55.1663C10.4256 55.2281 10.0179 55.518 8.54289 55.7024C7.87573 55.7856 7.30116 56.117 6.92529 56.6356C6.19212 57.6465 6.4433 58.9403 6.68614 60.1914C6.79828 60.7696 6.92563 61.4251 6.90423 61.8457C6.8073 63.7509 8.28418 64.3172 8.84004 64.5303C9.36414 64.7311 9.71043 64.8638 9.91616 66.3034C10.1379 67.8564 11.7022 69.0361 13.4717 69.0361C13.5653 69.0361 13.6596 69.0326 13.754 69.0259C15.3457 68.9128 17.2015 67.7026 17.2422 64.6708C17.7829 64.5699 18.6745 64.3601 19.3166 63.4994C19.9263 62.6822 20.1233 61.5706 19.9553 59.895C19.8556 58.9002 20.2787 58.3794 20.6108 58.3273C20.8874 58.284 21.0849 58.7312 21.1698 59.1273C21.648 61.3591 23.114 63.7359 25.3115 64.0155C26.5088 64.1681 28.2335 63.7519 29.668 60.9147C29.6835 60.906 29.7097 60.8931 29.7495 60.8782C30.6149 60.557 31.0559 59.5951 30.7347 58.7299C30.4135 57.8646 29.4517 57.4234 28.5863 57.7446C27.7271 58.0635 27.0745 58.6287 26.6988 59.3791C26.1852 60.4048 25.8039 60.6468 25.7128 60.6922C25.4352 60.5856 24.7216 59.75 24.4383 58.4269C23.8567 55.7127 21.7785 54.7598 20.0934 55.0249C18.1913 55.323 16.3309 57.248 16.6296 60.2281C16.6914 60.8456 16.6707 61.1981 16.6434 61.3821C16.6077 61.3888 16.5717 61.3953 16.5395 61.4012C15.8867 61.519 13.9002 61.8776 13.9002 64.569C13.9002 65.2838 13.7211 65.6251 13.6083 65.6724C13.4915 65.7212 13.3033 65.6774 13.1928 65.6216C12.7048 62.6558 11.153 61.8536 10.2431 61.4892C10.2145 60.8271 10.0846 60.1586 9.9673 59.5539C9.92869 59.3552 9.88106 59.1092 9.84329 58.8816C11.5174 58.5669 12.5763 58.0062 13.221 57.1091C14.1394 55.8316 13.8493 54.4003 13.5932 53.1374C13.4677 52.5177 13.3377 51.8769 13.3377 51.2488C13.3377 50.0384 13.209 49.2629 12.9821 48.6895C14.901 47.3373 14.8773 45.3069 14.8649 44.2452C14.863 44.0834 14.8605 43.868 14.8679 43.7042C14.8938 43.6916 14.9164 43.6763 14.9418 43.6632C15.011 43.7582 15.0791 43.8511 15.145 43.9393C15.865 44.9041 19.5972 49.7173 22.382 49.7173C25.1668 49.7173 28.8992 44.9041 29.619 43.9393C30.1571 43.218 30.8131 42.2692 31.4545 41.1677C31.7749 41.0913 32.0831 41.0094 32.3689 40.9326C32.6501 40.8569 32.9999 40.7626 33.2615 40.7076C33.8626 41.3308 34.6394 41.9056 35.5907 41.9054C36.0302 41.9054 36.5072 41.7827 37.0211 41.4853C38.4472 41.2921 39.2633 40.365 39.7441 39.7336C44.9366 42.0694 47.702 39.4498 49.5598 37.6899ZM22.3822 46.3568C21.706 46.1119 19.7118 44.552 17.6026 41.6402C15.3295 38.5024 14.0259 35.3138 14.0259 32.892C14.0259 28.2697 17.7652 24.4853 22.3614 24.4562C22.3684 24.4561 22.3753 24.4561 22.3822 24.4559C22.3892 24.4561 22.396 24.4561 22.403 24.4562C26.9991 24.4853 30.7384 28.2695 30.7384 32.892C30.7384 34.5964 30.0903 36.6809 28.9154 38.8599C28.9137 38.8629 28.9121 38.8661 28.9104 38.8691C28.4169 39.7833 27.8328 40.7136 27.1618 41.64C25.0523 44.552 23.0583 46.1119 22.3822 46.3568Z" fill="#238ECE"/>
<path d="M22.3821 27.8783C19.6176 27.8783 17.3684 30.1275 17.3684 32.892C17.3684 35.6566 19.6176 37.9058 22.3821 37.9058C25.1467 37.9058 27.3959 35.6566 27.3959 32.892C27.3959 30.1275 25.1467 27.8783 22.3821 27.8783ZM22.3821 34.5633C21.4606 34.5633 20.7109 33.8136 20.7109 32.892C20.7109 31.9705 21.4606 31.2208 22.3821 31.2208C23.3037 31.2208 24.0534 31.9705 24.0534 32.892C24.0534 33.8136 23.3037 34.5633 22.3821 34.5633Z" fill="#238ECE"/>
<path d="M71.648 30.0184C71.9605 30.2788 72.3397 30.4056 72.7169 30.4056C73.1957 30.4056 73.6712 30.2007 74.0018 29.8041L74.0026 29.8031C74.5936 29.0942 74.4973 28.0408 73.7882 27.4498C73.0791 26.8594 72.0249 26.9553 71.4341 27.6644C70.8431 28.3735 70.9389 29.4273 71.648 30.0184Z" fill="#238ECE"/>
<path d="M37.7232 59.8829L37.7222 59.8822C36.9362 59.3987 35.9074 59.644 35.4236 60.4299C34.9398 61.216 35.1854 62.2457 35.9716 62.7295C36.2447 62.8976 36.547 62.9775 36.8458 62.9775C37.4068 62.9775 37.955 62.6951 38.2707 62.182C38.7545 61.396 38.5094 60.3665 37.7232 59.8829Z" fill="#238ECE"/>
</g>
<path d="M2.90381 49.4994L2.90266 49.4986C2.00681 48.9476 0.834176 49.2272 0.282719 50.1229C-0.268738 51.0189 0.0112747 52.1925 0.907321 52.7439C1.21858 52.9356 1.56317 53.0266 1.90375 53.0266C2.54322 53.0266 3.16801 52.7047 3.52784 52.1199C4.0793 51.2241 3.79985 50.0507 2.90381 49.4994Z" fill="#238ECE"/>
<defs>
<clipPath id="clip0">
<rect width="85.56" height="85.56" fill="white" transform="translate(6.43994 0.439941)"/>
</clipPath>
</defs>
</svg>
