<?xml version="1.0" encoding="utf-8"?><svg xmlns="http://www.w3.org/2000/svg" xmlns:xlink="http://www.w3.org/1999/xlink"><symbol viewBox="0 0 26 17" id="arrow-left" xmlns="http://www.w3.org/2000/svg"><path d="M25.143 8.289H1m0 0L8.75.539M1 8.29l7.75 7.75"/></symbol><symbol viewBox="0 0 22 24" id="basket" xmlns="http://www.w3.org/2000/svg"><g clip-path="url(#ba)"><path d="M10.363 18.443a2.046 2.046 0 00-2.045 2.042 2.046 2.046 0 004.09 0 2.046 2.046 0 00-2.045-2.042zm6.134 0a2.046 2.046 0 00-2.045 2.042 2.046 2.046 0 004.089 0 2.046 2.046 0 00-2.044-2.042zm3.978-8.199L7.413 6.891a.614.614 0 00-.75.73L8.67 16.4h-.786L5.482 5.895a.613.613 0 00-.474-.464l-4.27-.882A.614.614 0 00.489 5.75l3.885.802L6.797 17.15a.613.613 0 00.598.477h12.07a.615.615 0 00.607-.53l.858-6.175a.613.613 0 00-.455-.678zm-8.14 3.91a.613.613 0 01-1.227 0v-2.696a.613.613 0 011.227 0v2.696zm2.625 0a.613.613 0 01-1.227 0v-1.88a.613.613 0 011.227 0v1.88zm2.625 0a.613.613 0 01-1.227 0v-1.226a.613.613 0 011.227 0v1.226z"/></g><path fill-rule="evenodd" clip-rule="evenodd" d="M16.268 4.568a2.996 2.996 0 00-1.693-.523c-.627 0-1.21.193-1.693.523-.28-.843-.492-1.752-.492-2.383C12.39.98 13.37 0 14.575 0s2.185.98 2.185 2.185c0 .631-.212 1.54-.492 2.383zm-4.722 2.274l.024.006v-.011l-.024.005zm4.972 1.217c-1.333-.33-2.766-.681-4.129-1.013a2.185 2.185 0 114.129 1.013zm4.436 1.103c-.866-.217-2.155-.538-3.618-.9a2.995 2.995 0 00.243-1.425c.87.18 1.762.45 2.308.765.596.344.969.928 1.067 1.56zM9.869 6.439c-.36-.086-.706-.167-1.03-.243a2.19 2.19 0 01-.376-2.667 2.188 2.188 0 013.147-.7c.098.738.338 1.599.61 2.353a3.01 3.01 0 00-.449.774c-.628.113-1.305.278-1.902.483zm10.124.075a3.43 3.43 0 01-.217.114c-.696-.295-1.587-.526-2.397-.672a3.01 3.01 0 00-.449-.774c.262-.727.494-1.553.599-2.273.095-.067.189-.128.278-.18a2.188 2.188 0 012.986.8 2.188 2.188 0 01-.8 2.985z"/><defs><clipPath id="ba"><path transform="translate(0 3.064)" d="M0 0h20.936v20.936H0z"/></clipPath></defs></symbol><symbol viewBox="0 0 16 16" id="call" xmlns="http://www.w3.org/2000/svg"><path d="M13.877 10.19a7.95 7.95 0 01-2.497-.398c-.39-.134-.87-.011-1.11.234l-1.574 1.188c-1.825-.974-2.95-2.099-3.91-3.91L5.938 5.77c.3-.299.407-.736.278-1.146a7.96 7.96 0 01-.4-2.5A1.12 1.12 0 004.695 1h-2.57C1.503 1 1 1.504 1 2.123 1 9.223 6.776 15 13.877 15c.619 0 1.123-.504 1.123-1.123v-2.564c0-.62-.504-1.124-1.123-1.124z"/></symbol><symbol viewBox="0 0 18 34" id="chevron-left" xmlns="http://www.w3.org/2000/svg"><path d="M17.5 1l-16 16 16 16"/></symbol><symbol viewBox="0 0 18 34" id="chevron-right" xmlns="http://www.w3.org/2000/svg"><path d="M.5 1l16 16-16 16"/></symbol><symbol viewBox="0 0 16 16" id="exit" xmlns="http://www.w3.org/2000/svg"><path fill-rule="evenodd" clip-rule="evenodd" d="M12.08 10.667V12a2.666 2.666 0 01-2.666 2.667H2.747A2.666 2.666 0 01.081 12V4a2.666 2.666 0 012.666-2.667h6.667A2.667 2.667 0 0112.081 4v1.333a.667.667 0 01-1.334 0V4c0-.736-.597-1.333-1.333-1.333H2.747c-.736 0-1.333.597-1.333 1.333v8c0 .737.597 1.333 1.333 1.333h6.667c.736 0 1.333-.596 1.333-1.333v-1.333a.667.667 0 011.334 0zm1.644-3.334l-.862-.861a.668.668 0 01.943-.943l2 2c.26.26.26.682 0 .943l-2 2a.667.667 0 01-.943-.943l.862-.862H8a.667.667 0 010-1.334h5.724z"/></symbol><symbol viewBox="0 0 14 9" id="input-location-arrow" xmlns="http://www.w3.org/2000/svg"><path d="M1.625 1.285l5.43 5.43 5.428-5.43"/></symbol><symbol viewBox="0 0 12 14" id="loc-point" xmlns="http://www.w3.org/2000/svg"><path d="M10.524 3.242A5 5 0 006.568.529a5.682 5.682 0 00-1.135 0 5.001 5.001 0 00-3.956 2.713 5.403 5.403 0 00.74 5.946l3.397 4.13a.5.5 0 00.773 0l3.396-4.13a5.403 5.403 0 00.74-5.946zM6 7.5a2 2 0 110-4 2 2 0 010 4z"/></symbol><symbol viewBox="0 0 16 16" id="mail" xmlns="http://www.w3.org/2000/svg"><g clip-path="url(#ia)"><path d="M14.571 14.286c.36 0 .671-.119.937-.354L10.974 9.4a81.19 81.19 0 00-.313.226c-.34.25-.615.445-.826.585-.212.14-.493.282-.844.428a2.57 2.57 0 01-.982.219H7.99a2.57 2.57 0 01-.982-.219 5.065 5.065 0 01-.844-.428c-.211-.14-.487-.335-.826-.585l-.313-.227-4.534 4.534c.265.235.577.354.937.354H14.57zM.902 6.545A4.733 4.733 0 010 5.768v6.897l3.995-3.996A306.91 306.91 0 00.902 6.545zm14.205 0c-1.216.823-2.25 1.531-3.101 2.126L16 12.665V5.768a4.93 4.93 0 01-.893.777z"/><path d="M14.571 1.714H1.428c-.458 0-.81.155-1.057.464C.123 2.488 0 2.875 0 3.34c0 .375.164.781.491 1.219A4.43 4.43 0 001.536 5.59c.202.143.812.567 1.83 1.272a590.46 590.46 0 012.34 1.63l.133.095.246.177a9.65 9.65 0 00.946.63c.182.107.353.187.514.241.16.053.31.08.446.08h.018c.137 0 .286-.027.446-.08.161-.054.332-.134.514-.241a9.65 9.65 0 00.946-.63 61.012 61.012 0 01.38-.272l.903-.628 3.275-2.274c.435-.303.798-.67 1.09-1.098.29-.428.437-.878.437-1.348 0-.393-.142-.73-.424-1.01a1.381 1.381 0 00-1.005-.419z"/></g><defs><clipPath id="ia"><path d="M0 0h16v16H0z"/></clipPath></defs></symbol><symbol viewBox="0 0 16 16" id="vk-logo" xmlns="http://www.w3.org/2000/svg"><g clip-path="url(#ja)"><path d="M15.337 10.807c-.476-.571-1.037-1.059-1.567-1.577-.479-.466-.51-.737-.124-1.276.42-.588.87-1.153 1.294-1.739.396-.547.8-1.092 1.008-1.747.132-.417.015-.6-.412-.674a1.319 1.319 0 00-.224-.013l-2.535-.003c-.313-.005-.485.131-.596.408-.149.374-.303.748-.48 1.109-.403.818-.853 1.61-1.484 2.28-.14.147-.293.334-.525.257-.291-.106-.377-.586-.372-.748l-.003-2.926c-.056-.418-.149-.604-.564-.685H6.12c-.352 0-.528.136-.716.356-.108.127-.14.21.082.251.437.083.683.366.749.804.104.7.097 1.404.037 2.107-.018.205-.053.41-.135.601-.127.302-.333.363-.603.178-.244-.168-.416-.405-.584-.643a14.15 14.15 0 01-1.547-2.866c-.118-.292-.323-.469-.633-.474a64.624 64.624 0 00-2.282 0c-.457.01-.594.232-.407.647C.909 6.276 1.83 8.068 3.035 9.7c.618.837 1.327 1.576 2.244 2.1 1.039.594 2.157.773 3.335.718.551-.026.717-.17.742-.719.018-.376.06-.75.246-1.088.182-.332.457-.395.775-.188a2.2 2.2 0 01.42.373c.31.34.61.69.932 1.018.404.41.883.654 1.484.604h2.33c.376-.024.57-.484.355-.903a4.48 4.48 0 00-.561-.808z"/></g><defs><clipPath id="ja"><path d="M0 0h16v16H0z"/></clipPath></defs></symbol></svg>