<svg width="17" height="17" viewBox="0 0 17 17" fill="none" xmlns="http://www.w3.org/2000/svg">
<path d="M14.4542 10.7094C13.5971 10.7094 12.7555 10.5753 11.958 10.3117C11.5672 10.1785 11.0868 10.3007 10.8483 10.5457L9.27412 11.734C7.44854 10.7595 6.32403 9.63537 5.36284 7.82351L6.5162 6.29037C6.81585 5.99112 6.92333 5.55398 6.79456 5.14383C6.52987 4.34211 6.39541 3.50091 6.39541 2.64341C6.39545 2.02395 5.89148 1.51999 5.27206 1.51999H2.70102C2.0816 1.51999 1.57764 2.02395 1.57764 2.64338C1.57764 9.74362 7.35401 15.52 14.4542 15.52C15.0737 15.52 15.5776 15.016 15.5776 14.3966V11.8327C15.5776 11.2133 15.0736 10.7094 14.4542 10.7094Z" fill="#7B7B7B"/>
</svg>
