<svg width="16" height="16" viewBox="0 0 16 16" fill="none" xmlns="http://www.w3.org/2000/svg">
<path d="M13.8766 10.1894C13.0195 10.1894 12.1779 10.0553 11.3804 9.79178C10.9896 9.65849 10.5091 9.78077 10.2706 10.0257L8.69648 11.2141C6.87091 10.2396 5.74639 9.11541 4.7852 7.30355L5.93856 5.7704C6.23821 5.47116 6.34569 5.03402 6.21692 4.62387C5.95223 3.82215 5.81777 2.98095 5.81777 2.12345C5.81781 1.50399 5.31385 1.00003 4.69442 1.00003H2.12339C1.50396 1.00003 1 1.50399 1 2.12341C1 9.22366 6.77637 15 13.8766 15C14.496 15 15 14.496 15 13.8766V11.3127C15 10.6934 14.496 10.1894 13.8766 10.1894Z" fill="black"/>
</svg>
