<svg width="16" height="14" viewBox="0 0 16 14" fill="none" xmlns="http://www.w3.org/2000/svg">
<path fill-rule="evenodd" clip-rule="evenodd" d="M12.0807 9.66668V11C12.0807 12.4733 10.8867 13.6667 9.414 13.6667H2.74733C1.27399 13.6667 0.0806618 12.4733 0.0806618 11C0.0806618 8.78068 0.0806618 5.22001 0.0806618 3.00001C0.0806618 1.52734 1.27399 0.333344 2.74733 0.333344C4.65333 0.333344 7.50733 0.333344 9.414 0.333344C10.8867 0.333344 12.0807 1.52734 12.0807 3.00001V4.33334C12.0807 4.70134 11.782 5.00001 11.414 5.00001C11.046 5.00001 10.7473 4.70134 10.7473 4.33334C10.7473 4.33334 10.7473 3.70868 10.7473 3.00001C10.7473 2.26401 10.15 1.66668 9.414 1.66668H2.74733C2.01066 1.66668 1.41399 2.26401 1.41399 3.00001V11C1.41399 11.7367 2.01066 12.3333 2.74733 12.3333C4.65333 12.3333 7.50733 12.3333 9.414 12.3333C10.15 12.3333 10.7473 11.7367 10.7473 11C10.7473 10.292 10.7473 9.66668 10.7473 9.66668C10.7473 9.29934 11.046 9.00001 11.414 9.00001C11.782 9.00001 12.0807 9.29934 12.0807 9.66668ZM13.7238 6.33334L12.8618 5.47201C12.6018 5.21134 12.6018 4.78934 12.8618 4.52868C13.1225 4.26868 13.5445 4.26868 13.8045 4.52868L15.8045 6.52868C16.0652 6.78934 16.0652 7.21134 15.8045 7.47201L13.8045 9.47201C13.5445 9.73201 13.1225 9.73201 12.8618 9.47201C12.6018 9.21134 12.6018 8.78934 12.8618 8.52868L13.7238 7.66668H7.99983C7.63183 7.66668 7.33317 7.36801 7.33317 7.00001C7.33317 6.63268 7.63183 6.33334 7.99983 6.33334H13.7238Z" fill="black"/>
</svg>
