<svg width="16" height="16" viewBox="0 0 16 16" fill="none" xmlns="http://www.w3.org/2000/svg">
<path fill-rule="evenodd" clip-rule="evenodd" d="M12.0807 10.6666V11.9999C12.0807 13.4733 10.8867 14.6666 9.414 14.6666H2.74733C1.27399 14.6666 0.0806618 13.4733 0.0806618 11.9999C0.0806618 9.78059 0.0806618 6.21992 0.0806618 3.99992C0.0806618 2.52725 1.27399 1.33325 2.74733 1.33325C4.65333 1.33325 7.50733 1.33325 9.414 1.33325C10.8867 1.33325 12.0807 2.52725 12.0807 3.99992V5.33325C12.0807 5.70125 11.782 5.99992 11.414 5.99992C11.046 5.99992 10.7473 5.70125 10.7473 5.33325C10.7473 5.33325 10.7473 4.70859 10.7473 3.99992C10.7473 3.26392 10.15 2.66659 9.414 2.66659H2.74733C2.01066 2.66659 1.41399 3.26392 1.41399 3.99992V11.9999C1.41399 12.7366 2.01066 13.3333 2.74733 13.3333C4.65333 13.3333 7.50733 13.3333 9.414 13.3333C10.15 13.3333 10.7473 12.7366 10.7473 11.9999C10.7473 11.2919 10.7473 10.6666 10.7473 10.6666C10.7473 10.2993 11.046 9.99992 11.414 9.99992C11.782 9.99992 12.0807 10.2993 12.0807 10.6666ZM13.7238 7.33325L12.8618 6.47191C12.6018 6.21125 12.6018 5.78925 12.8618 5.52858C13.1225 5.26858 13.5445 5.26858 13.8045 5.52858L15.8045 7.52858C16.0652 7.78925 16.0652 8.21125 15.8045 8.47191L13.8045 10.4719C13.5445 10.7319 13.1225 10.7319 12.8618 10.4719C12.6018 10.2112 12.6018 9.78925 12.8618 9.52859L13.7238 8.66659H7.99983C7.63183 8.66659 7.33317 8.36792 7.33317 7.99992C7.33317 7.63259 7.63183 7.33325 7.99983 7.33325H13.7238Z" fill="black"/>
</svg>
