<svg width="25" height="24" viewBox="0 0 25 24" fill="none" xmlns="http://www.w3.org/2000/svg">
<path d="M17.8123 20.9997H7.75168C6.95792 20.9997 6.31445 20.3562 6.31445 19.5625V5.0632C6.31445 4.26945 6.95792 3.62598 7.75168 3.62598H14.2155C14.5967 3.62598 14.9622 3.7774 15.2318 4.04693L18.8285 7.64369C19.0981 7.91323 19.2495 8.27879 19.2495 8.65997V19.5625C19.2495 20.3562 18.606 20.9997 17.8123 20.9997Z" fill="#25C047"/>
<path fill-rule="evenodd" clip-rule="evenodd" d="M8.29492 12.0966C8.29492 11.7989 8.53622 11.5576 8.83388 11.5576H16.7304C17.028 11.5576 17.2693 11.7989 17.2693 12.0966C17.2693 12.3942 17.028 12.6355 16.7304 12.6355H8.83388C8.53622 12.6355 8.29492 12.3942 8.29492 12.0966Z" fill="white"/>
<path fill-rule="evenodd" clip-rule="evenodd" d="M8.29492 15.0282C8.29492 14.7306 8.53622 14.4893 8.83388 14.4893H16.7304C17.028 14.4893 17.2693 14.7306 17.2693 15.0282C17.2693 15.3259 17.028 15.5672 16.7304 15.5672H8.83388C8.53622 15.5672 8.29492 15.3259 8.29492 15.0282Z" fill="white"/>
<path fill-rule="evenodd" clip-rule="evenodd" d="M8.29492 17.9608C8.29492 17.6632 8.53622 17.4219 8.83388 17.4219H16.7304C17.028 17.4219 17.2693 17.6632 17.2693 17.9608C17.2693 18.2585 17.028 18.4998 16.7304 18.4998H8.83388C8.53622 18.4998 8.29492 18.2585 8.29492 17.9608Z" fill="white"/>
</svg>
