<svg width="16" height="16" viewBox="0 0 16 16" fill="none" xmlns="http://www.w3.org/2000/svg">
<g opacity="0.5">
<path d="M14.609 10.1L12.449 7.91998C12.4389 7.90743 12.4259 7.89764 12.411 7.89152C12.3961 7.88539 12.38 7.88315 12.364 7.88498C12.3479 7.88559 12.332 7.88944 12.3174 7.89632C12.3028 7.90319 12.2897 7.91294 12.279 7.92498L10.839 9.44998C10.7459 9.549 10.6336 9.628 10.5089 9.68216C10.3843 9.73632 10.2499 9.7645 10.114 9.76498C9.97808 9.7645 9.84369 9.73632 9.71904 9.68216C9.59439 9.628 9.48208 9.549 9.38898 9.44998L6.29898 6.15498C6.27698 6.1353 6.2485 6.12442 6.21898 6.12442C6.18947 6.12442 6.16098 6.1353 6.13898 6.15498L1.32898 9.90498L0.708984 9.09998L5.49898 5.34998C5.71883 5.17905 5.99469 5.09658 6.27228 5.11879C6.54987 5.14099 6.80911 5.26627 6.99898 5.46998L10.084 8.76498L11.514 7.23998C11.6163 7.12968 11.74 7.04133 11.8775 6.9803C12.015 6.91928 12.1635 6.88685 12.314 6.88498C12.4645 6.88107 12.6141 6.90838 12.7535 6.96517C12.8929 7.02197 13.0191 7.10702 13.124 7.21498L15.284 9.39498L14.609 10.1Z" fill="black"/>
<path d="M13.54 15.5H2.46C1.94018 15.5 1.44164 15.2935 1.07407 14.9259C0.706499 14.5584 0.5 14.0598 0.5 13.54V2.46C0.5 1.94018 0.706499 1.44164 1.07407 1.07407C1.44164 0.706499 1.94018 0.5 2.46 0.5H13.54C14.0598 0.5 14.5584 0.706499 14.9259 1.07407C15.2935 1.44164 15.5 1.94018 15.5 2.46V13.54C15.5 14.0598 15.2935 14.5584 14.9259 14.9259C14.5584 15.2935 14.0598 15.5 13.54 15.5ZM2.46 1.5C2.20539 1.5 1.96121 1.60114 1.78118 1.78118C1.60114 1.96121 1.5 2.20539 1.5 2.46V13.54C1.5 13.6661 1.52483 13.7909 1.57308 13.9074C1.62132 14.0238 1.69203 14.1297 1.78118 14.2188C1.87032 14.308 1.97615 14.3787 2.09262 14.4269C2.2091 14.4752 2.33393 14.5 2.46 14.5H13.54C13.6661 14.5 13.7909 14.4752 13.9074 14.4269C14.0238 14.3787 14.1297 14.308 14.2188 14.2188C14.308 14.1297 14.3787 14.0238 14.4269 13.9074C14.4752 13.7909 14.5 13.6661 14.5 13.54V2.46C14.5 2.33393 14.4752 2.2091 14.4269 2.09262C14.3787 1.97615 14.308 1.87032 14.2188 1.78118C14.1297 1.69203 14.0238 1.62132 13.9074 1.57308C13.7909 1.52483 13.6661 1.5 13.54 1.5H2.46Z" fill="black"/>
<path d="M10.166 5.91504C10.7183 5.91504 11.166 5.46732 11.166 4.91504C11.166 4.36275 10.7183 3.91504 10.166 3.91504C9.61373 3.91504 9.16602 4.36275 9.16602 4.91504C9.16602 5.46732 9.61373 5.91504 10.166 5.91504Z" fill="black"/>
<path d="M1 9.75055L5.765 5.91555L6.645 5.81055L9.53 8.89055C9.53 8.89055 10.03 9.57555 10.455 9.10555L11.89 7.58055C11.89 7.58055 12.175 6.95555 12.785 7.58055C13.395 8.20555 15 10.2505 15 10.2505L14.965 13.8655C14.965 13.8655 14.815 15.0005 13.345 15.0005C11.875 15.0005 2.345 14.8455 2.345 14.8455C2.345 14.8455 1 15.1755 1 13.5405C1 11.9055 1 9.75055 1 9.75055Z" fill="black"/>
</g>
</svg>
