<svg width="30" height="13" viewBox="0 0 30 13" fill="none" xmlns="http://www.w3.org/2000/svg">
<path id="Vector" fill-rule="evenodd" clip-rule="evenodd" d="M13.2712 6.57729C13.2405 9.65749 10.734 12.145 7.64648 12.145C4.53989 12.145 2.02148 9.62655 2.02148 6.51996C2.02148 6.44144 2.02309 6.3633 2.02628 6.28558H1.08398C0.69566 6.28558 0.380859 5.97079 0.380859 5.58246C0.380859 5.19412 0.69566 4.87933 1.08398 4.87933H2.26451C2.96665 2.57304 5.11059 0.894958 7.64648 0.894958C10.2307 0.894958 12.408 2.63765 13.0671 5.01197C14.2136 4.39017 15.6106 4.39017 16.7572 5.01199C17.4163 2.63765 19.5935 0.894958 22.1777 0.894958C24.7137 0.894958 26.8575 2.57304 27.5597 4.87933H28.7402C29.1286 4.87933 29.4434 5.19412 29.4434 5.58246C29.4434 5.97079 29.1286 6.28558 28.7402 6.28558H27.798C27.8011 6.3633 27.8027 6.44144 27.8027 6.51996C27.8027 9.62655 25.2844 12.145 22.1777 12.145C19.0903 12.145 16.5838 9.65749 16.553 6.57729C15.6215 5.7434 14.2027 5.7434 13.2712 6.57729ZM11.8652 6.51996C11.8652 8.8499 9.97643 10.7387 7.64648 10.7387C5.31654 10.7387 3.42773 8.8499 3.42773 6.51996C3.42773 4.19001 5.31654 2.30121 7.64648 2.30121C9.97643 2.30121 11.8652 4.19001 11.8652 6.51996ZM22.1777 10.7387C24.5077 10.7387 26.3965 8.8499 26.3965 6.51996C26.3965 4.19001 24.5077 2.30121 22.1777 2.30121C19.8478 2.30121 17.959 4.19001 17.959 6.51996C17.959 8.8499 19.8478 10.7387 22.1777 10.7387Z" fill="#00086A"/>
</svg>
