<svg width="12" height="14" viewBox="0 0 12 14" fill="none" xmlns="http://www.w3.org/2000/svg">
<path d="M10.5238 3.24178C10.1447 2.49426 9.58371 1.85404 8.89248 1.37999C8.20124 0.905943 7.40193 0.613268 6.56802 0.528876C6.19078 0.491026 5.8107 0.491026 5.43347 0.528876C4.59957 0.613323 3.80028 0.90599 3.10902 1.37998C2.41776 1.85398 1.85671 2.4941 1.47742 3.24153C1.00021 4.1952 0.81589 5.26876 0.947662 6.32699C1.07943 7.38523 1.52141 8.3808 2.21792 9.18832L5.61437 13.3177C5.66127 13.3748 5.72024 13.4207 5.78702 13.4523C5.85381 13.4839 5.92675 13.5002 6.00062 13.5002C6.07448 13.5002 6.14743 13.4839 6.21421 13.4523C6.281 13.4207 6.33996 13.3748 6.38687 13.3177L9.78332 9.18832C10.4798 8.38085 10.9218 7.38531 11.0536 6.32712C11.1853 5.26893 11.001 4.19541 10.5238 3.24178ZM6.00062 7.50008C5.60506 7.50008 5.21838 7.38278 4.88948 7.16301C4.56058 6.94325 4.30423 6.63089 4.15286 6.26544C4.00148 5.89999 3.96188 5.49786 4.03905 5.10989C4.11622 4.72193 4.3067 4.36557 4.5864 4.08586C4.86611 3.80616 5.22248 3.61568 5.61044 3.5385C5.9984 3.46133 6.40053 3.50094 6.76598 3.65232C7.13144 3.80369 7.44379 4.06004 7.66356 4.38894C7.88332 4.71783 8.00062 5.10451 8.00062 5.50008C8 6.03032 7.78908 6.53866 7.41414 6.9136C7.03921 7.28854 6.53086 7.49945 6.00062 7.50008Z" fill="#E31E24"/>
</svg>
