<svg width="17" height="17" viewBox="0 0 17 17" fill="none" xmlns="http://www.w3.org/2000/svg">
<g clip-path="url(#clip0_2843_4812)">
<path d="M14.4379 14.8057C14.7976 14.8057 15.1092 14.6869 15.3742 14.4524L10.8411 9.91922C10.7323 9.9971 10.6269 10.0728 10.5273 10.1448C10.1881 10.3948 9.91279 10.5898 9.70137 10.7296C9.48998 10.8696 9.20873 11.0124 8.85764 11.1582C8.50633 11.3041 8.17903 11.3769 7.87541 11.3769H7.86652H7.85763C7.55399 11.3769 7.22669 11.3042 6.8754 11.1582C6.52411 11.0124 6.24286 10.8696 6.03168 10.7296C5.82029 10.5898 5.54511 10.3948 5.2057 10.1448C5.11112 10.0755 5.00622 9.99942 4.89281 9.918L0.358887 14.4524C0.623784 14.6869 0.935624 14.8057 1.29525 14.8057H14.4379Z" fill="#7B7B7B"/>
<path d="M0.767604 7.06465C0.4284 6.8385 0.127599 6.5795 -0.134277 6.28777V13.1847L3.86114 9.18929C3.06183 8.63126 2.03196 7.92386 0.767604 7.06465Z" fill="#7B7B7B"/>
<path d="M14.9725 7.06465C13.7564 7.88778 12.7228 8.5964 11.8716 9.19089L15.8654 13.1849V6.28777C15.6093 6.57364 15.3117 6.83246 14.9725 7.06465Z" fill="#7B7B7B"/>
<path d="M14.4374 2.23422H1.29469C0.836183 2.23422 0.483675 2.38905 0.23673 2.69839C-0.0104183 3.00788 -0.133789 3.39493 -0.133789 3.8591C-0.133789 4.23404 0.0299307 4.64029 0.357225 5.07797C0.684519 5.51547 1.03279 5.85912 1.40185 6.10909C1.60418 6.25204 2.21432 6.67621 3.23228 7.38146C3.7818 7.76226 4.25969 8.09417 4.67035 8.3806C5.02039 8.62449 5.32227 8.83571 5.57151 9.01099C5.60012 9.03106 5.64512 9.06325 5.70484 9.10595C5.76918 9.15216 5.85061 9.21081 5.95106 9.28335C6.1445 9.42325 6.3052 9.53634 6.43318 9.62273C6.561 9.70915 6.71586 9.80568 6.89753 9.91287C7.07906 10.0199 7.25027 10.1004 7.41097 10.1539C7.5717 10.2075 7.72049 10.2343 7.85737 10.2343H7.86625H7.87514C8.01199 10.2343 8.16081 10.2075 8.32157 10.1539C8.48224 10.1004 8.65331 10.0201 8.83498 9.91287C9.01648 9.80568 9.17113 9.70894 9.29935 9.62273C9.42734 9.53634 9.58804 9.42328 9.78151 9.28335C9.88176 9.21081 9.96318 9.15214 10.0275 9.10609C10.0873 9.06322 10.1322 9.03123 10.161 9.01099C10.3552 8.87588 10.6578 8.66554 11.0646 8.38307C11.8048 7.86875 12.8949 7.11177 14.3396 6.10909C14.7741 5.80561 15.1371 5.43939 15.4288 5.01095C15.72 4.58251 15.866 4.13309 15.866 3.66285C15.866 3.26996 15.7245 2.93378 15.442 2.65378C15.1592 2.37412 14.8243 2.23422 14.4374 2.23422Z" fill="#7B7B7B"/>
</g>
<defs>
<clipPath id="clip0_2843_4812">
<rect width="16" height="16" fill="white" transform="translate(0.267578 0.519958)"/>
</clipPath>
</defs>
</svg>
