<svg width="11" height="14" viewBox="0 0 11 14" fill="none" xmlns="http://www.w3.org/2000/svg">
<path d="M9.96864 3.24129C9.58951 2.49377 9.02853 1.85356 8.3373 1.37951C7.64607 0.905455 6.84675 0.61278 6.01284 0.528387C5.63561 0.490538 5.25553 0.490538 4.87829 0.528387C4.0444 0.612835 3.2451 0.905502 2.55384 1.3795C1.86258 1.85349 1.30153 2.49361 0.922243 3.24104C0.445038 4.19471 0.260714 5.26827 0.392486 6.32651C0.524258 7.38474 0.966233 8.38031 1.66274 9.18784L5.05919 13.3172C5.1061 13.3743 5.16506 13.4203 5.23185 13.4518C5.29863 13.4834 5.37158 13.4997 5.44544 13.4997C5.51931 13.4997 5.59225 13.4834 5.65904 13.4518C5.72582 13.4203 5.78479 13.3743 5.83169 13.3172L9.22814 9.18784C9.92464 8.38036 10.3666 7.38483 10.4984 6.32663C10.6302 5.26844 10.4458 4.19492 9.96864 3.24129ZM5.44544 7.49959C5.04988 7.49959 4.6632 7.38229 4.3343 7.16253C4.0054 6.94276 3.74906 6.63041 3.59768 6.26495C3.44631 5.8995 3.4067 5.49737 3.48387 5.10941C3.56104 4.72144 3.75152 4.36508 4.03123 4.08537C4.31093 3.80567 4.6673 3.61519 5.05526 3.53802C5.44322 3.46085 5.84536 3.50045 6.21081 3.65183C6.57626 3.8032 6.88862 4.05955 7.10838 4.38845C7.32814 4.71735 7.44544 5.10402 7.44544 5.49959C7.44482 6.02983 7.23391 6.53818 6.85897 6.91311C6.48403 7.28805 5.97568 7.49897 5.44544 7.49959Z" fill="#E31E24"/>
</svg>
