<svg width="17" height="17" viewBox="0 0 17 17" fill="none" xmlns="http://www.w3.org/2000/svg">
<path id="Subtract" fill-rule="evenodd" clip-rule="evenodd" d="M8.82422 16.52C13.2425 16.52 16.8242 12.9382 16.8242 8.51996C16.8242 4.10168 13.2425 0.519958 8.82422 0.519958C4.40594 0.519958 0.824219 4.10168 0.824219 8.51996C0.824219 12.9382 4.40594 16.52 8.82422 16.52ZM5.80641 9.21912L3.65582 8.41645C3.43739 8.3346 3.43549 8.02623 3.6533 7.94223L12.4794 4.5374C12.6665 4.46503 12.8595 4.62895 12.8188 4.82545L11.2349 12.4443C11.1976 12.6242 10.9867 12.7057 10.8378 12.5975L8.67563 11.0278C8.54431 10.9324 8.36532 10.9375 8.23967 11.0399L7.04089 12.0172C6.90174 12.131 6.69208 12.0676 6.63881 11.8961L5.80641 9.21912ZM10.7077 6.20318L6.50466 8.79184C6.34357 8.89127 6.26772 9.08581 6.31977 9.26793L6.77421 10.8647C6.80647 10.9779 6.97071 10.9663 6.98636 10.8493L7.10452 9.97369C7.12679 9.80883 7.20544 9.65695 7.32737 9.54345L10.7961 6.3191C10.861 6.25893 10.7832 6.15679 10.7077 6.20318Z" fill="#00086A"/>
</svg>
