<svg width="17" height="17" viewBox="0 0 17 17" fill="none" xmlns="http://www.w3.org/2000/svg">
<path id="Vector" d="M8.82682 0.519959C7.24446 0.519445 5.69748 0.988203 4.38155 1.86694C3.06561 2.74568 2.03983 3.99493 1.43393 5.45669C0.828032 6.91846 0.669235 8.52707 0.977624 10.0791C1.28601 11.6311 2.04773 13.0568 3.16645 14.1759C4.28517 15.295 5.71062 16.0572 7.26254 16.3661C8.81446 16.6749 10.4231 16.5167 11.8851 15.9112C13.347 15.3058 14.5966 14.2804 15.4758 12.9648C16.355 11.6491 16.8242 10.1023 16.8242 8.51996C16.8242 6.39868 15.9817 4.36424 14.482 2.86402C12.9823 1.36381 10.9481 0.520648 8.82682 0.519959ZM12.8658 11.5797H11.8788C11.5021 11.5797 11.3931 11.2862 10.7229 10.6291C10.1359 10.0732 9.88396 10.0005 9.73851 10.0005C9.42422 10.0005 9.47877 10.1044 9.47877 11.2031C9.47877 11.442 9.40084 11.5797 8.77227 11.5797C7.73331 11.5797 6.58007 10.9563 5.76188 9.80828C4.53851 8.12256 4.20344 6.84724 4.20344 6.59009C4.20344 6.44724 4.26059 6.33035 4.5411 6.33035H5.52812C5.78786 6.33035 5.87617 6.43685 5.97487 6.70698C6.45799 8.08879 7.27357 9.30438 7.60604 9.30438C7.73331 9.30438 7.78786 9.24724 7.78786 8.93555V7.50698C7.75149 6.84983 7.39565 6.79529 7.39565 6.56152C7.39759 6.52974 7.40592 6.49868 7.42016 6.47021C7.4344 6.44173 7.45424 6.41643 7.4785 6.39581C7.50275 6.37519 7.53092 6.35968 7.56132 6.35022C7.59172 6.34076 7.62372 6.33753 7.65539 6.34074H9.21383C9.42162 6.34074 9.49435 6.44983 9.49435 6.69658V8.61606C9.49435 8.82126 9.58786 8.89399 9.65019 8.89399C9.77487 8.89399 9.88136 8.82126 10.1099 8.59529C10.6082 7.997 11.0168 7.3294 11.3229 6.61347C11.3575 6.52974 11.4181 6.45932 11.4957 6.41256C11.5733 6.36581 11.6639 6.34519 11.7541 6.35373H12.7229C13.0216 6.35373 13.084 6.50438 13.0216 6.70957C12.8969 7.27321 11.6943 8.93814 11.6918 8.94074C11.5879 9.10438 11.5463 9.20048 11.6918 9.37191C11.7489 9.44983 13.0164 10.6316 13.2034 11.2057C13.2943 11.442 13.1515 11.5797 12.871 11.5797H12.8658Z" fill="#00086A"/>
</svg>
