<svg width="16" height="16" viewBox="0 0 16 16" fill="none" xmlns="http://www.w3.org/2000/svg">
<g clip-path="url(#clip0)">
<path d="M15.3369 10.8072C14.8605 10.2358 14.2999 9.74814 13.7695 9.23032C13.291 8.76356 13.2608 8.49279 13.6455 7.95408C14.0653 7.36612 14.5168 6.8007 14.9405 6.21539C15.3359 5.66839 15.7402 5.12287 15.9482 4.46792C16.0802 4.05124 15.9635 3.86719 15.5362 3.79424C15.4626 3.78147 15.3865 3.78081 15.3115 3.78081L12.7765 3.77782C12.4643 3.77318 12.2916 3.90931 12.1812 4.18605C12.0322 4.56011 11.8784 4.93385 11.7009 5.29482C11.2979 6.11326 10.8479 6.90434 10.217 7.57421C10.0779 7.72194 9.92404 7.90865 9.69158 7.83171C9.40075 7.72559 9.31502 7.2464 9.31983 7.0844L9.31734 4.15836C9.26097 3.74035 9.16828 3.55398 8.75326 3.47273L6.11986 3.47323C5.76835 3.47323 5.59209 3.60903 5.40439 3.82889C5.29612 3.9559 5.26346 4.03831 5.48597 4.08043C5.92305 4.16333 6.16928 4.4462 6.2346 4.88444C6.3394 5.58465 6.3321 6.28769 6.27175 6.99072C6.254 7.19599 6.21869 7.40077 6.13727 7.59245C6.00993 7.89372 5.80433 7.95507 5.53422 7.7697C5.28965 7.6019 5.11787 7.36512 4.94974 7.12735C4.31817 6.23496 3.81428 5.2726 3.4034 4.26132C3.28468 3.96917 3.0799 3.79208 2.77034 3.78727C2.00977 3.77517 1.24903 3.77318 0.48846 3.78794C0.0308246 3.79656 -0.105637 4.01874 0.0807334 4.4336C0.90912 6.27625 1.83119 8.06766 3.0348 9.69956C3.65278 10.5371 4.36228 11.2764 5.27888 11.8004C6.31768 12.3943 7.4359 12.573 8.61365 12.518C9.16513 12.4921 9.33077 12.3487 9.35631 11.799C9.37355 11.423 9.41617 11.0491 9.60171 10.7112C9.78377 10.3795 10.0595 10.3164 10.3774 10.5226C10.5364 10.6259 10.6704 10.7574 10.7969 10.896C11.1073 11.2356 11.4065 11.5855 11.7287 11.9136C12.1328 12.3248 12.6115 12.5677 13.2134 12.5182L15.5433 12.5187C15.9187 12.4941 16.1134 12.0338 15.8978 11.6148C15.7465 11.3213 15.5478 11.06 15.3369 10.8072Z" fill="black"/>
</g>
<defs>
<clipPath id="clip0">
<rect width="16" height="16" fill="white"/>
</clipPath>
</defs>
</svg>
